<?xml version="1.0" encoding="UTF-8"?>
<!DOCTYPE svg PUBLIC "-//W3C//DTD SVG 1.1//EN" "http://www.w3.org/Graphics/SVG/1.1/DTD/svg11.dtd">
<svg xmlns="http://www.w3.org/2000/svg" version="1.1" width="512px" height="512px" style="shape-rendering:geometricPrecision; text-rendering:geometricPrecision; image-rendering:optimizeQuality; fill-rule:evenodd; clip-rule:evenodd" xmlns:xlink="http://www.w3.org/1999/xlink">
<g><path style="opacity:1" fill="#a42f35" d="M 261.5,60.5 C 259.453,60.4889 257.453,60.1556 255.5,59.5C 253.829,59.6682 252.496,60.3349 251.5,61.5C 250.833,61.5 250.5,61.8333 250.5,62.5C 247.366,63.9009 244.366,65.5675 241.5,67.5C 240.001,66.506 238.334,66.506 236.5,67.5C 241.402,63.7986 246.735,60.6319 252.5,58C 256.034,57.1361 259.034,57.9694 261.5,60.5 Z"/></g>
<g><path style="opacity:1" fill="#8c3e52" d="M 261.5,60.5 C 263.97,60.6535 265.97,61.6535 267.5,63.5C 265.03,63.3465 263.03,62.3465 261.5,60.5 Z"/></g>
<g><path style="opacity:1" fill="#c1705d" d="M 250.5,62.5 C 250.5,61.8333 250.833,61.5 251.5,61.5C 254.162,61.4062 256.828,61.7395 259.5,62.5C 257.952,62.8212 257.285,63.8212 257.5,65.5C 256.833,64.8333 256.167,64.1667 255.5,63.5C 255.167,63.5 254.833,63.5 254.5,63.5C 252.926,63.9371 251.759,64.9371 251,66.5C 251.331,64.9813 251.164,63.648 250.5,62.5 Z"/></g>
<g><path style="opacity:1" fill="#892b42" d="M 267.5,63.5 C 269.153,63.6596 270.486,64.3263 271.5,65.5C 269.62,65.7709 268.287,65.1042 267.5,63.5 Z"/></g>
<g><path style="opacity:1" fill="#7e3b46" d="M 273.5,66.5 C 275.027,66.427 276.027,67.0937 276.5,68.5C 274.973,68.573 273.973,67.9063 273.5,66.5 Z"/></g>
<g><path style="opacity:1" fill="#873c4f" d="M 276.5,68.5 C 278.38,68.2291 279.713,68.8958 280.5,70.5C 278.847,70.3404 277.514,69.6737 276.5,68.5 Z"/></g>
<g><path style="opacity:1" fill="#98374d" d="M 280.5,70.5 C 282.38,70.2291 283.713,70.8958 284.5,72.5C 282.62,72.7709 281.287,72.1042 280.5,70.5 Z"/></g>
<g><path style="opacity:1" fill="#923947" d="M 284.5,72.5 C 289.086,73.4598 293.086,75.4598 296.5,78.5C 291.914,77.5402 287.914,75.5402 284.5,72.5 Z"/></g>
<g><path style="opacity:1" fill="#e4d7ab" d="M 250.5,62.5 C 251.164,63.648 251.331,64.9813 251,66.5C 251.759,64.9371 252.926,63.9371 254.5,63.5C 253.813,68.8953 252.146,73.8953 249.5,78.5C 249.688,76.8967 249.188,75.5634 248,74.5C 246.981,78.2259 245.647,81.8926 244,85.5C 243.329,86.2524 242.496,86.5858 241.5,86.5C 241.5,86.1667 241.5,85.8333 241.5,85.5C 238.791,88.2085 236.458,91.2085 234.5,94.5C 228.5,101.167 222.167,107.5 215.5,113.5C 213.847,113.66 212.514,114.326 211.5,115.5C 204.238,118.416 197.072,121.416 190,124.5C 186.945,130.789 188.945,134.123 196,134.5C 197.385,134.486 198.551,134.152 199.5,133.5C 200.5,133.5 201.5,133.5 202.5,133.5C 200.169,138.653 196.169,141.82 190.5,143C 162.451,149.397 134.118,153.731 105.5,156C 106.96,155.189 107.293,154.355 106.5,153.5C 105.167,154.5 103.833,155.5 102.5,156.5C 101.264,155.754 99.9305,155.421 98.5,155.5C 97.5,155.5 96.5,155.5 95.5,155.5C 95.5,156.833 95.5,158.167 95.5,159.5C 96.8333,159.5 98.1667,159.5 99.5,159.5C 99.3398,161.199 99.5065,162.866 100,164.5C 104.149,169.413 106.649,175.079 107.5,181.5C 105.5,178.167 103.5,174.833 101.5,171.5C 101.167,170.833 100.833,170.167 100.5,169.5C 99.9744,167.77 98.9744,166.436 97.5,165.5C 94.1021,162.373 91.4354,158.707 89.5,154.5C 90.2625,153.732 91.2625,153.232 92.5,153C 88.8804,152.328 86.2138,150.494 84.5,147.5C 136.989,121.089 189.323,94.4222 241.5,67.5C 244.366,65.5675 247.366,63.9009 250.5,62.5 Z"/></g>
<g><path style="opacity:1" fill="#d82926" d="M 261.5,60.5 C 263.03,62.3465 265.03,63.3465 267.5,63.5C 268.287,65.1042 269.62,65.7709 271.5,65.5C 272.492,65.3284 273.158,65.6618 273.5,66.5C 273.973,67.9063 274.973,68.573 276.5,68.5C 277.514,69.6737 278.847,70.3404 280.5,70.5C 281.287,72.1042 282.62,72.7709 284.5,72.5C 287.914,75.5402 291.914,77.5402 296.5,78.5C 304.276,83.2258 312.276,87.7258 320.5,92C 328.089,95.7769 335.755,99.2769 343.5,102.5C 344.287,104.104 345.62,104.771 347.5,104.5C 349.579,106.873 352.246,108.206 355.5,108.5C 357.579,110.873 360.246,112.206 363.5,112.5C 363.833,112.5 364.167,112.5 364.5,112.5C 367.096,115.476 370.43,117.476 374.5,118.5C 375.492,118.328 376.158,118.662 376.5,119.5C 389.627,127.232 403.294,134.232 417.5,140.5C 418.514,141.674 419.847,142.34 421.5,142.5C 422.514,143.674 423.847,144.34 425.5,144.5C 427.966,145.298 429.966,146.631 431.5,148.5C 431.5,214.5 431.5,280.5 431.5,346.5C 431.167,346.5 430.833,346.5 430.5,346.5C 430.832,289.331 430.499,232.331 429.5,175.5C 429.5,166.833 429.5,158.167 429.5,149.5C 426.863,148.218 424.196,146.885 421.5,145.5C 367.5,117.833 313.5,90.1667 259.5,62.5C 256.828,61.7395 254.162,61.4062 251.5,61.5C 252.496,60.3349 253.829,59.6682 255.5,59.5C 257.453,60.1556 259.453,60.4889 261.5,60.5 Z"/></g>
<g><path style="opacity:1" fill="#936d48" d="M 267.5,80.5 C 276.424,87.6406 286.091,93.8073 296.5,99C 306.034,104.434 316.034,108.767 326.5,112C 323.655,111.951 320.822,111.451 318,110.5C 317.167,110.833 316.333,111.167 315.5,111.5C 317.188,112.521 318.521,113.855 319.5,115.5C 315.189,113.344 310.855,111.178 306.5,109C 307.672,108.581 308.672,107.915 309.5,107C 295.357,100.766 282.024,93.2665 269.5,84.5C 268.479,85.0016 268.312,85.6683 269,86.5C 273.089,91.0442 276.922,95.7109 280.5,100.5C 275.786,96.1003 271.286,91.4336 267,86.5C 265.148,84.7703 265.314,83.6036 267.5,83C 264.86,80.7966 264.86,79.9633 267.5,80.5 Z"/></g>
<g><path style="opacity:1" fill="#cc2d31" d="M 241.5,67.5 C 189.323,94.4222 136.989,121.089 84.5,147.5C 84.1667,147.5 83.8333,147.5 83.5,147.5C 83.5569,146.391 83.8902,145.391 84.5,144.5C 112.841,129.539 141.841,114.872 171.5,100.5C 174.496,99.7297 177.163,98.3964 179.5,96.5C 197.962,86.1012 216.962,76.4346 236.5,67.5C 238.334,66.506 240.001,66.506 241.5,67.5 Z"/></g>
<g><path style="opacity:1" fill="#967847" d="M 241.5,85.5 C 241.5,85.8333 241.5,86.1667 241.5,86.5C 239.883,89.7843 237.55,92.4509 234.5,94.5C 236.458,91.2085 238.791,88.2085 241.5,85.5 Z"/></g>
<g><path style="opacity:1" fill="#e2dbad" d="M 249.5,78.5 C 247.383,94.5346 245.05,110.535 242.5,126.5C 241.404,128.103 240.07,129.603 238.5,131C 225.805,134.568 213.138,137.401 200.5,139.5C 202.19,137.481 203.856,135.481 205.5,133.5C 212.276,128.955 216.276,122.622 217.5,114.5C 223.91,108.426 229.577,101.76 234.5,94.5C 237.55,92.4509 239.883,89.7843 241.5,86.5C 242.496,86.5858 243.329,86.2524 244,85.5C 245.647,81.8926 246.981,78.2259 248,74.5C 249.188,75.5634 249.688,76.8967 249.5,78.5 Z"/></g>
<g><path style="opacity:1" fill="#8f414d" d="M 296.5,78.5 C 312.674,85.7527 328.341,93.7527 343.5,102.5C 335.755,99.2769 328.089,95.7769 320.5,92C 312.276,87.7258 304.276,83.2258 296.5,78.5 Z"/></g>
<g><path style="opacity:1" fill="#e0d9a9" d="M 255.5,63.5 C 256.167,64.1667 256.833,64.8333 257.5,65.5C 259.977,68.4379 261.977,71.7712 263.5,75.5C 266.342,76.0045 267.675,77.6711 267.5,80.5C 264.86,79.9633 264.86,80.7966 267.5,83C 265.314,83.6036 265.148,84.7703 267,86.5C 271.286,91.4336 275.786,96.1003 280.5,100.5C 283.094,104.272 285.927,107.939 289,111.5C 290.009,113.025 290.509,114.692 290.5,116.5C 289.216,120.014 287.55,123.347 285.5,126.5C 291.012,128.308 296.679,129.475 302.5,130C 306.5,132.667 309.833,136 312.5,140C 298.866,137.009 285.199,133.843 271.5,130.5C 268.701,122.414 266.534,114.08 265,105.5C 264.617,104.944 264.117,104.611 263.5,104.5C 261.617,95.5242 259.95,86.5242 258.5,77.5C 256.307,73.1051 255.307,68.4385 255.5,63.5 Z"/></g>
<g><path style="opacity:1" fill="#933436" d="M 179.5,96.5 C 177.163,98.3964 174.496,99.7297 171.5,100.5C 173.612,98.2295 176.279,96.8961 179.5,96.5 Z"/></g>
<g><path style="opacity:1" fill="#d7d4a7" d="M 252.5,81.5 C 253.931,81.8807 254.764,82.8807 255,84.5C 257.375,96.7772 259.208,109.11 260.5,121.5C 257.5,121.5 254.5,121.5 251.5,121.5C 251.5,112.5 251.5,103.5 251.5,94.5C 251.927,90.1756 252.261,85.8422 252.5,81.5 Z"/></g>
<g><path style="opacity:1" fill="#812d42" d="M 343.5,102.5 C 345.153,102.66 346.486,103.326 347.5,104.5C 345.62,104.771 344.287,104.104 343.5,102.5 Z"/></g>
<g><path style="opacity:1" fill="#98794e" d="M 280.5,100.5 C 284.526,104.195 288.526,107.862 292.5,111.5C 291.833,113.167 291.167,114.833 290.5,116.5C 290.509,114.692 290.009,113.025 289,111.5C 285.927,107.939 283.094,104.272 280.5,100.5 Z"/></g>
<g><path style="opacity:1" fill="#7c323c" d="M 347.5,104.5 C 350.485,105.326 353.151,106.659 355.5,108.5C 352.246,108.206 349.579,106.873 347.5,104.5 Z"/></g>
<g><path style="opacity:1" fill="#522416" d="M 254.5,63.5 C 254.833,63.5 255.167,63.5 255.5,63.5C 255.307,68.4385 256.307,73.1051 258.5,77.5C 257.034,76.653 256.2,75.3197 256,73.5C 254.007,75.8175 252.841,78.4842 252.5,81.5C 252.261,85.8422 251.927,90.1756 251.5,94.5C 249.814,104.316 248.48,114.316 247.5,124.5C 246.527,126.948 246.194,129.615 246.5,132.5C 245.5,132.5 244.5,132.5 243.5,132.5C 243.657,133.873 243.49,135.207 243,136.5C 240.897,139.059 239.064,141.726 237.5,144.5C 237.5,143.833 237.5,143.167 237.5,142.5C 238.879,138.075 241.046,134.075 244,130.5C 244.765,128.934 244.598,127.601 243.5,126.5C 243.167,126.5 242.833,126.5 242.5,126.5C 245.05,110.535 247.383,94.5346 249.5,78.5C 252.146,73.8953 253.813,68.8953 254.5,63.5 Z"/></g>
<g><path style="opacity:1" fill="#c1b487" d="M 251.5,94.5 C 251.5,103.5 251.5,112.5 251.5,121.5C 254.5,121.5 257.5,121.5 260.5,121.5C 260.433,122.959 260.766,124.292 261.5,125.5C 257.532,122.843 253.532,122.843 249.5,125.5C 248.508,125.672 247.842,125.338 247.5,124.5C 248.48,114.316 249.814,104.316 251.5,94.5 Z"/></g>
<g><path style="opacity:1" fill="#e9dbad" d="M 259.5,62.5 C 313.5,90.1667 367.5,117.833 421.5,145.5C 421.423,146.75 420.756,147.583 419.5,148C 421.426,148.422 422.426,149.589 422.5,151.5C 419.428,152.85 416.428,154.183 413.5,155.5C 411.08,155.708 408.747,155.374 406.5,154.5C 405.304,154.846 405.304,155.346 406.5,156C 405.207,156.49 403.873,156.657 402.5,156.5C 394.93,155.796 387.597,154.462 380.5,152.5C 387.049,152.738 393.549,153.405 400,154.5C 400.5,154.167 401,153.833 401.5,153.5C 400.133,152.16 398.8,150.827 397.5,149.5C 392.038,145.436 386.038,142.436 379.5,140.5C 375.818,137.992 371.818,135.992 367.5,134.5C 367.158,133.662 366.492,133.328 365.5,133.5C 362.086,130.46 358.086,128.46 353.5,127.5C 347.732,124.445 342.065,121.112 336.5,117.5C 335.051,118.617 333.384,119.284 331.5,119.5C 327.309,118.737 323.309,117.404 319.5,115.5C 318.521,113.855 317.188,112.521 315.5,111.5C 316.333,111.167 317.167,110.833 318,110.5C 320.822,111.451 323.655,111.951 326.5,112C 316.034,108.767 306.034,104.434 296.5,99C 286.091,93.8073 276.424,87.6406 267.5,80.5C 267.675,77.6711 266.342,76.0045 263.5,75.5C 261.977,71.7712 259.977,68.4379 257.5,65.5C 257.285,63.8212 257.952,62.8212 259.5,62.5 Z"/></g>
<g><path style="opacity:1" fill="#7f3040" d="M 355.5,108.5 C 358.485,109.326 361.151,110.659 363.5,112.5C 360.246,112.206 357.579,110.873 355.5,108.5 Z"/></g>
<g><path style="opacity:1" fill="#845f39" d="M 234.5,94.5 C 229.577,101.76 223.91,108.426 217.5,114.5C 217.158,113.662 216.492,113.328 215.5,113.5C 222.167,107.5 228.5,101.167 234.5,94.5 Z"/></g>
<g><path style="opacity:1" fill="#96565f" d="M 364.5,112.5 C 368.201,114.012 371.534,116.012 374.5,118.5C 370.43,117.476 367.096,115.476 364.5,112.5 Z"/></g>
<g><path style="opacity:1" fill="#521c16" d="M 258.5,77.5 C 259.95,86.5242 261.617,95.5242 263.5,104.5C 264.825,111.451 265.825,118.451 266.5,125.5C 267.267,129.698 268.601,133.698 270.5,137.5C 270.5,138.167 270.5,138.833 270.5,139.5C 268.193,138.023 266.36,136.023 265,133.5C 263.764,134.399 262.93,135.566 262.5,137C 268.497,154.277 275.331,171.111 283,187.5C 283.661,190.946 284.495,194.279 285.5,197.5C 276.816,177.47 268.149,157.47 259.5,137.5C 261.773,135.201 263.773,132.535 265.5,129.5C 265.035,127.192 263.701,125.858 261.5,125.5C 260.766,124.292 260.433,122.959 260.5,121.5C 259.208,109.11 257.375,96.7772 255,84.5C 254.764,82.8807 253.931,81.8807 252.5,81.5C 252.841,78.4842 254.007,75.8175 256,73.5C 256.2,75.3197 257.034,76.653 258.5,77.5 Z"/></g>
<g><path style="opacity:1" fill="#c6ac78" d="M 188.5,112.5 C 189.514,111.326 190.847,110.66 192.5,110.5C 195.815,108.996 199.148,107.829 202.5,107C 194.59,112.577 186.423,117.744 178,122.5C 176.054,122.237 175.388,121.237 176,119.5C 180.559,117.806 184.725,115.472 188.5,112.5 Z"/></g>
<g><path style="opacity:1" fill="#dcd1a2" d="M 210.5,118.5 C 211.3,125.433 207.966,129.767 200.5,131.5C 197.751,131.726 195.084,131.393 192.5,130.5C 191.257,126.853 192.59,124.353 196.5,123C 201.308,121.801 205.975,120.301 210.5,118.5 Z"/></g>
<g><path style="opacity:1" fill="#9e865a" d="M 263.5,104.5 C 264.117,104.611 264.617,104.944 265,105.5C 266.534,114.08 268.701,122.414 271.5,130.5C 270.046,128.563 268.379,126.897 266.5,125.5C 265.825,118.451 264.825,111.451 263.5,104.5 Z"/></g>
<g><path style="opacity:1" fill="#845d39" d="M 241.5,85.5 C 241.631,84.7611 241.464,84.0944 241,83.5C 230.428,91.5396 219.261,98.7063 207.5,105C 196.881,112.618 186.548,120.618 176.5,129C 174.874,128.805 173.207,128.805 171.5,129C 160.727,137.948 160.061,137.281 169.5,127C 168.833,126.333 168.167,126.333 167.5,127C 161.018,133.648 154.352,140.148 147.5,146.5C 147.157,148.225 146.157,148.725 144.5,148C 142.5,147 140.5,146 138.5,145C 137.226,144.023 137.226,143.189 138.5,142.5C 149.305,136.262 159.972,129.762 170.5,123C 170.167,122.833 169.833,122.667 169.5,122.5C 164.599,125.118 159.599,127.452 154.5,129.5C 165.237,122.798 176.57,117.132 188.5,112.5C 184.725,115.472 180.559,117.806 176,119.5C 175.388,121.237 176.054,122.237 178,122.5C 186.423,117.744 194.59,112.577 202.5,107C 199.148,107.829 195.815,108.996 192.5,110.5C 205.233,103.964 217.899,97.1308 230.5,90C 235.271,86.8625 239.771,83.3625 244,79.5C 244.238,81.9559 243.404,83.9559 241.5,85.5 Z"/></g>
<g><path style="opacity:1" fill="#d3c18f" d="M 138.5,142.5 C 138.631,141.624 138.298,140.957 137.5,140.5C 136.264,141.246 134.93,141.579 133.5,141.5C 138.001,139.084 142.334,136.417 146.5,133.5C 148.849,131.659 151.515,130.326 154.5,129.5C 159.599,127.452 164.599,125.118 169.5,122.5C 169.833,122.667 170.167,122.833 170.5,123C 159.972,129.762 149.305,136.262 138.5,142.5 Z"/></g>
<g><path style="opacity:1" fill="#7d5336" d="M 319.5,115.5 C 323.309,117.404 327.309,118.737 331.5,119.5C 333.384,119.284 335.051,118.617 336.5,117.5C 342.065,121.112 347.732,124.445 353.5,127.5C 349.422,126.298 345.422,124.798 341.5,123C 340.167,122.333 338.833,122.333 337.5,123C 332.629,126.248 329.963,130.748 329.5,136.5C 328.127,136.657 326.793,136.49 325.5,136C 322.345,133.011 319.345,129.844 316.5,126.5C 317.723,125.386 319.056,125.219 320.5,126C 321.725,127.563 323.225,128.73 325,129.5C 327.307,127.561 329.14,125.228 330.5,122.5C 326.609,120.395 322.942,118.062 319.5,115.5 Z"/></g>
<g><path style="opacity:1" fill="#70442a" d="M 292.5,111.5 C 296.585,118.752 302.419,124.085 310,127.5C 310.697,131.928 312.363,135.928 315,139.5C 316.488,141.16 318.321,142.16 320.5,142.5C 319.486,143.674 318.153,144.34 316.5,144.5C 303.22,140.262 289.553,136.762 275.5,134C 273.09,133.943 271.756,132.776 271.5,130.5C 285.199,133.843 298.866,137.009 312.5,140C 309.833,136 306.5,132.667 302.5,130C 296.679,129.475 291.012,128.308 285.5,126.5C 287.55,123.347 289.216,120.014 290.5,116.5C 291.167,114.833 291.833,113.167 292.5,111.5 Z"/></g>
<g><path style="opacity:1" fill="#5e331e" d="M 215.5,113.5 C 216.492,113.328 217.158,113.662 217.5,114.5C 216.276,122.622 212.276,128.955 205.5,133.5C 204.348,132.375 203.348,132.375 202.5,133.5C 201.5,133.5 200.5,133.5 199.5,133.5C 199.062,133.565 198.728,133.399 198.5,133C 199.416,132.722 200.082,132.222 200.5,131.5C 207.966,129.767 211.3,125.433 210.5,118.5C 210.557,117.391 210.89,116.391 211.5,115.5C 212.514,114.326 213.847,113.66 215.5,113.5 Z"/></g>
<g><path style="opacity:1" fill="#9e855c" d="M 353.5,127.5 C 358.086,128.46 362.086,130.46 365.5,133.5C 361.182,132.008 357.182,130.008 353.5,127.5 Z"/></g>
<g><path style="opacity:1" fill="#24222d" d="M 261.5,125.5 C 262.75,133.08 259.417,136.247 251.5,135C 247.229,132.433 246.562,129.266 249.5,125.5C 253.532,122.843 257.532,122.843 261.5,125.5 Z"/></g>
<g><path style="opacity:1" fill="#7e4e32" d="M 211.5,115.5 C 210.89,116.391 210.557,117.391 210.5,118.5C 205.975,120.301 201.308,121.801 196.5,123C 192.59,124.353 191.257,126.853 192.5,130.5C 195.084,131.393 197.751,131.726 200.5,131.5C 200.082,132.222 199.416,132.722 198.5,133C 198.728,133.399 199.062,133.565 199.5,133.5C 198.551,134.152 197.385,134.486 196,134.5C 188.945,134.123 186.945,130.789 190,124.5C 197.072,121.416 204.238,118.416 211.5,115.5 Z"/></g>
<g><path style="opacity:1" fill="#9f9175" d="M 247.5,124.5 C 247.842,125.338 248.508,125.672 249.5,125.5C 246.562,129.266 247.229,132.433 251.5,135C 259.417,136.247 262.75,133.08 261.5,125.5C 263.701,125.858 265.035,127.192 265.5,129.5C 263.773,132.535 261.773,135.201 259.5,137.5C 257.167,137.5 254.833,137.5 252.5,137.5C 250.091,136.299 248.091,134.633 246.5,132.5C 246.194,129.615 246.527,126.948 247.5,124.5 Z"/></g>
<g><path style="opacity:1" fill="#84613f" d="M 367.5,134.5 C 371.818,135.992 375.818,137.992 379.5,140.5C 377.323,140.414 375.323,139.747 373.5,138.5C 372.452,139.383 371.285,140.05 370,140.5C 360.122,136.527 349.956,134.693 339.5,135C 337.699,133.613 337.032,132.113 337.5,130.5C 348.396,133.477 359.396,135.643 370.5,137C 369.058,136.623 368.058,135.79 367.5,134.5 Z"/></g>
<g><path style="opacity:1" fill="#8e3744" d="M 376.5,119.5 C 382.922,122.034 389.256,124.867 395.5,128C 403.058,131.941 410.392,136.108 417.5,140.5C 403.294,134.232 389.627,127.232 376.5,119.5 Z"/></g>
<g><path style="opacity:1" fill="#e5e0b3" d="M 243.5,126.5 C 244.598,127.601 244.765,128.934 244,130.5C 241.046,134.075 238.879,138.075 237.5,142.5C 222.988,175.535 208.988,208.869 195.5,242.5C 194.833,242.833 194.167,243.167 193.5,243.5C 181.933,227.092 169.766,211.092 157,195.5C 156.517,194.552 156.351,193.552 156.5,192.5C 170.347,176.814 183.68,160.647 196.5,144C 210.461,140.207 224.461,136.541 238.5,133C 241.495,131.836 243.161,129.669 243.5,126.5 Z"/></g>
<g><path style="opacity:1" fill="#e2d7a9" d="M 319.5,115.5 C 322.942,118.062 326.609,120.395 330.5,122.5C 329.14,125.228 327.307,127.561 325,129.5C 323.225,128.73 321.725,127.563 320.5,126C 319.056,125.219 317.723,125.386 316.5,126.5C 319.345,129.844 322.345,133.011 325.5,136C 326.793,136.49 328.127,136.657 329.5,136.5C 329.963,130.748 332.629,126.248 337.5,123C 338.833,122.333 340.167,122.333 341.5,123C 345.422,124.798 349.422,126.298 353.5,127.5C 357.182,130.008 361.182,132.008 365.5,133.5C 366.492,133.328 367.158,133.662 367.5,134.5C 368.058,135.79 369.058,136.623 370.5,137C 359.396,135.643 348.396,133.477 337.5,130.5C 337.032,132.113 337.699,133.613 339.5,135C 349.956,134.693 360.122,136.527 370,140.5C 371.285,140.05 372.452,139.383 373.5,138.5C 375.323,139.747 377.323,140.414 379.5,140.5C 385.182,144.008 391.182,147.008 397.5,149.5C 398.8,150.827 400.133,152.16 401.5,153.5C 401,153.833 400.5,154.167 400,154.5C 393.549,153.405 387.049,152.738 380.5,152.5C 376.158,152.261 371.824,151.927 367.5,151.5C 351.942,148.389 336.276,145.389 320.5,142.5C 318.321,142.16 316.488,141.16 315,139.5C 312.363,135.928 310.697,131.928 310,127.5C 302.419,124.085 296.585,118.752 292.5,111.5C 288.526,107.862 284.526,104.195 280.5,100.5C 276.922,95.7109 273.089,91.0442 269,86.5C 268.312,85.6683 268.479,85.0016 269.5,84.5C 282.024,93.2665 295.357,100.766 309.5,107C 308.672,107.915 307.672,108.581 306.5,109C 310.855,111.178 315.189,113.344 319.5,115.5 Z"/></g>
<g><path style="opacity:1" fill="#842f3f" d="M 417.5,140.5 C 419.38,140.229 420.713,140.896 421.5,142.5C 419.847,142.34 418.514,141.674 417.5,140.5 Z"/></g>
<g><path style="opacity:1" fill="#965059" d="M 421.5,142.5 C 423.38,142.229 424.713,142.896 425.5,144.5C 423.847,144.34 422.514,143.674 421.5,142.5 Z"/></g>
<g><path style="opacity:1" fill="#dac593" d="M 147.5,146.5 C 144.978,146.872 142.978,146.039 141.5,144C 145.698,140.97 150.032,138.137 154.5,135.5C 155.521,136.002 155.688,136.668 155,137.5C 151.888,140.101 149.388,143.101 147.5,146.5 Z"/></g>
<g><path style="opacity:1" fill="#865b37" d="M 242.5,126.5 C 242.833,126.5 243.167,126.5 243.5,126.5C 243.161,129.669 241.495,131.836 238.5,133C 224.461,136.541 210.461,140.207 196.5,144C 183.68,160.647 170.347,176.814 156.5,192.5C 155.798,191.884 154.798,191.884 153.5,192.5C 155.252,190.754 156.585,188.754 157.5,186.5C 158.239,186.631 158.906,186.464 159.5,186C 170.667,172.833 181.833,159.667 193,146.5C 193.591,145.517 193.257,144.85 192,144.5C 165.554,150.501 139.054,155.501 112.5,159.5C 112.062,159.435 111.728,159.601 111.5,160C 115.693,163.365 119.693,166.865 123.5,170.5C 122.833,170.5 122.167,170.5 121.5,170.5C 114.08,165.073 106.414,160.073 98.5,155.5C 99.9305,155.421 101.264,155.754 102.5,156.5C 103.833,155.5 105.167,154.5 106.5,153.5C 107.293,154.355 106.96,155.189 105.5,156C 134.118,153.731 162.451,149.397 190.5,143C 196.169,141.82 200.169,138.653 202.5,133.5C 203.348,132.375 204.348,132.375 205.5,133.5C 203.856,135.481 202.19,137.481 200.5,139.5C 213.138,137.401 225.805,134.568 238.5,131C 240.07,129.603 241.404,128.103 242.5,126.5 Z"/></g>
<g><path style="opacity:1" fill="#e4dfb2" d="M 266.5,125.5 C 268.379,126.897 270.046,128.563 271.5,130.5C 271.756,132.776 273.09,133.943 275.5,134C 289.553,136.762 303.22,140.262 316.5,144.5C 330.213,160.878 343.547,177.545 356.5,194.5C 345.216,209.624 333.716,224.624 322,239.5C 320.223,241.79 318.056,243.457 315.5,244.5C 311.43,236.596 307.763,228.596 304.5,220.5C 293.928,192.435 282.595,164.769 270.5,137.5C 268.601,133.698 267.267,129.698 266.5,125.5 Z"/></g>
<g><path style="opacity:1" fill="#ac9169" d="M 379.5,140.5 C 386.038,142.436 392.038,145.436 397.5,149.5C 391.182,147.008 385.182,144.008 379.5,140.5 Z"/></g>
<g><path style="opacity:1" fill="#968054" d="M 146.5,133.5 C 142.334,136.417 138.001,139.084 133.5,141.5C 125.734,144.883 118.067,148.549 110.5,152.5C 109.304,152.154 109.304,151.654 110.5,151C 122.399,144.883 134.399,139.05 146.5,133.5 Z"/></g>
<g><path style="opacity:1" fill="#995f40" d="M 83.5,147.5 C 83.8333,147.5 84.1667,147.5 84.5,147.5C 86.2138,150.494 88.8804,152.328 92.5,153C 91.2625,153.232 90.2625,153.732 89.5,154.5C 87.4752,152.804 85.4752,151.137 83.5,149.5C 83.5,148.833 83.5,148.167 83.5,147.5 Z"/></g>
<g><path style="opacity:1" fill="#e2dbaf" d="M 369.5,153.5 C 380.647,156.549 391.98,158.549 403.5,159.5C 403.5,159.833 403.5,160.167 403.5,160.5C 401.5,161.167 399.5,161.833 397.5,162.5C 397.083,161.876 396.416,161.543 395.5,161.5C 391.565,162.817 387.565,163.817 383.5,164.5C 382.504,164.414 381.671,164.748 381,165.5C 379.89,163.963 378.39,163.297 376.5,163.5C 375.183,163.179 373.849,162.846 372.5,162.5C 371.353,162.818 370.519,163.484 370,164.5C 369.501,170.157 369.334,175.824 369.5,181.5C 369.158,182.338 368.492,182.672 367.5,182.5C 362.525,182.153 358.858,184.153 356.5,188.5C 354.629,188.141 353.129,187.141 352,185.5C 341.356,172.022 330.523,158.688 319.5,145.5C 320,145.167 320.5,144.833 321,144.5C 337.108,147.879 353.275,150.879 369.5,153.5 Z"/></g>
<g><path style="opacity:1" fill="#e2d9aa" d="M 157.5,186.5 C 155.437,181.899 151.77,179.899 146.5,180.5C 144.847,180.34 143.514,179.674 142.5,178.5C 143.167,177.5 143.833,176.5 144.5,175.5C 145.482,174.859 146.482,174.193 147.5,173.5C 148.524,174.853 149.857,175.52 151.5,175.5C 152.183,169.955 150.849,164.955 147.5,160.5C 139.457,162.027 131.457,163.027 123.5,163.5C 119.675,162.559 116.009,161.226 112.5,159.5C 139.054,155.501 165.554,150.501 192,144.5C 193.257,144.85 193.591,145.517 193,146.5C 181.833,159.667 170.667,172.833 159.5,186C 158.906,186.464 158.239,186.631 157.5,186.5 Z"/></g>
<g><path style="opacity:1" fill="#703a1f" d="M 367.5,151.5 C 371.824,151.927 376.158,152.261 380.5,152.5C 387.597,154.462 394.93,155.796 402.5,156.5C 403.263,157.268 404.263,157.768 405.5,158C 404.584,158.278 403.918,158.778 403.5,159.5C 391.98,158.549 380.647,156.549 369.5,153.5C 368.833,152.833 368.167,152.167 367.5,151.5 Z"/></g>
<g><path style="opacity:1" fill="#e9ddb0" d="M 82.5,149.5 C 82.8333,149.5 83.1667,149.5 83.5,149.5C 85.4752,151.137 87.4752,152.804 89.5,154.5C 91.4354,158.707 94.1021,162.373 97.5,165.5C 98.2076,189.807 98.8743,214.14 99.5,238.5C 99.5,244.5 99.5,250.5 99.5,256.5C 98.6679,279.663 98.1679,302.996 98,326.5C 94.9108,331.406 92.0774,336.406 89.5,341.5C 87.5,343.167 85.5,344.833 83.5,346.5C 82.5009,281.002 82.1675,215.335 82.5,149.5 Z"/></g>
<g><path style="opacity:1" fill="#8a6f4a" d="M 422.5,151.5 C 422.938,151.435 423.272,151.601 423.5,152C 422.267,153.667 420.933,155.167 419.5,156.5C 419.631,155.624 419.298,154.957 418.5,154.5C 416.929,155.309 415.262,155.643 413.5,155.5C 416.428,154.183 419.428,152.85 422.5,151.5 Z"/></g>
<g><path style="opacity:1" fill="#a17e53" d="M 413.5,155.5 C 410.075,156.767 407.075,158.767 404.5,161.5C 404.5,160.833 404.167,160.5 403.5,160.5C 403.5,160.167 403.5,159.833 403.5,159.5C 403.918,158.778 404.584,158.278 405.5,158C 404.263,157.768 403.263,157.268 402.5,156.5C 403.873,156.657 405.207,156.49 406.5,156C 405.304,155.346 405.304,154.846 406.5,154.5C 408.747,155.374 411.08,155.708 413.5,155.5 Z"/></g>
<g><path style="opacity:1" fill="#e0d9a8" d="M 252.5,137.5 C 254.833,137.5 257.167,137.5 259.5,137.5C 268.149,157.47 276.816,177.47 285.5,197.5C 288.93,207.803 292.93,217.803 297.5,227.5C 298.833,231.833 300.167,236.167 301.5,240.5C 301.5,241.5 301.5,242.5 301.5,243.5C 270.167,243.5 238.833,243.5 207.5,243.5C 207.605,239.681 208.438,236.014 210,232.5C 216,218.662 221.5,204.662 226.5,190.5C 233.376,172.902 240.709,155.402 248.5,138C 249.793,137.51 251.127,137.343 252.5,137.5 Z"/></g>
<g><path style="opacity:1" fill="#4b1518" d="M 246.5,132.5 C 248.091,134.633 250.091,136.299 252.5,137.5C 251.127,137.343 249.793,137.51 248.5,138C 240.709,155.402 233.376,172.902 226.5,190.5C 231.342,172.744 237.842,155.744 246,139.5C 246.497,137.19 246.663,134.857 246.5,132.5 Z"/></g>
<g><path style="opacity:1" fill="#725631" d="M 397.5,162.5 C 393.38,163.205 389.713,164.872 386.5,167.5C 384.787,167.121 383.787,166.121 383.5,164.5C 387.565,163.817 391.565,162.817 395.5,161.5C 396.416,161.543 397.083,161.876 397.5,162.5 Z"/></g>
<g><path style="opacity:1" fill="#ecdbb5" d="M 421.5,145.5 C 424.196,146.885 426.863,148.218 429.5,149.5C 429.5,158.167 429.5,166.833 429.5,175.5C 429.832,233.002 429.499,290.336 428.5,347.5C 425.21,345.876 422.543,343.543 420.5,340.5C 418.612,336.394 416.446,332.394 414,328.5C 413.505,326.527 413.338,324.527 413.5,322.5C 413.175,269.791 413.509,217.125 414.5,164.5C 416.664,162.178 418.331,159.511 419.5,156.5C 420.933,155.167 422.267,153.667 423.5,152C 423.272,151.601 422.938,151.435 422.5,151.5C 422.426,149.589 421.426,148.422 419.5,148C 420.756,147.583 421.423,146.75 421.5,145.5 Z"/></g>
<g><path style="opacity:1" fill="#714022" d="M 144.5,175.5 C 143.402,174.603 143.402,173.77 144.5,173C 143.906,172.536 143.239,172.369 142.5,172.5C 143.765,171.521 145.099,170.521 146.5,169.5C 146.291,168.914 145.957,168.414 145.5,168C 142.935,167.391 140.601,167.891 138.5,169.5C 135.615,169.806 132.948,169.473 130.5,168.5C 132.429,168.769 134.095,168.269 135.5,167C 134.333,166.833 133.167,166.667 132,166.5C 130.319,166.608 129.152,167.275 128.5,168.5C 127.549,167.081 127.216,165.415 127.5,163.5C 126.167,163.5 124.833,163.5 123.5,163.5C 131.457,163.027 139.457,162.027 147.5,160.5C 150.849,164.955 152.183,169.955 151.5,175.5C 149.857,175.52 148.524,174.853 147.5,173.5C 146.482,174.193 145.482,174.859 144.5,175.5 Z"/></g>
<g><path style="opacity:1" fill="#4b2211" d="M 403.5,160.5 C 404.167,160.5 404.5,160.833 404.5,161.5C 401.167,164.5 397.833,167.5 394.5,170.5C 392.678,170.169 391.011,169.502 389.5,168.5C 391.809,166.013 394.476,164.013 397.5,162.5C 399.5,161.833 401.5,161.167 403.5,160.5 Z"/></g>
<g><path style="opacity:1" fill="#dccc82" d="M 130.5,168.5 C 129.833,168.5 129.167,168.5 128.5,168.5C 129.152,167.275 130.319,166.608 132,166.5C 133.167,166.667 134.333,166.833 135.5,167C 134.095,168.269 132.429,168.769 130.5,168.5 Z"/></g>
<g><path style="opacity:1" fill="#c8b888" d="M 397.5,162.5 C 394.476,164.013 391.809,166.013 389.5,168.5C 386.055,172.006 383.055,176.006 380.5,180.5C 380.667,180.833 380.833,181.167 381,181.5C 382.972,179.768 385.139,178.435 387.5,177.5C 385.344,179.841 382.844,181.841 380,183.5C 378.109,187.933 376.276,192.266 374.5,196.5C 374.631,195.761 374.464,195.094 374,194.5C 372.871,196.141 371.371,197.141 369.5,197.5C 368.508,197.672 367.842,197.338 367.5,196.5C 372.473,194.188 373.64,190.521 371,185.5C 369.855,184.364 368.688,183.364 367.5,182.5C 368.492,182.672 369.158,182.338 369.5,181.5C 370.575,182.562 371.575,182.562 372.5,181.5C 375.696,175.913 377.029,169.913 376.5,163.5C 378.39,163.297 379.89,163.963 381,165.5C 381.671,164.748 382.504,164.414 383.5,164.5C 383.787,166.121 384.787,167.121 386.5,167.5C 389.713,164.872 393.38,163.205 397.5,162.5 Z"/></g>
<g><path style="opacity:1" fill="#522917" d="M 112.5,159.5 C 116.009,161.226 119.675,162.559 123.5,163.5C 124.833,163.5 126.167,163.5 127.5,163.5C 127.216,165.415 127.549,167.081 128.5,168.5C 129.167,168.5 129.833,168.5 130.5,168.5C 132.948,169.473 135.615,169.806 138.5,169.5C 136.901,171.309 134.901,172.642 132.5,173.5C 133.559,174.696 134.893,175.363 136.5,175.5C 138.494,174.511 140.494,173.511 142.5,172.5C 143.239,172.369 143.906,172.536 144.5,173C 143.402,173.77 143.402,174.603 144.5,175.5C 143.833,176.5 143.167,177.5 142.5,178.5C 140.833,179.833 139.167,181.167 137.5,182.5C 132.514,178.845 127.847,174.845 123.5,170.5C 119.693,166.865 115.693,163.365 111.5,160C 111.728,159.601 112.062,159.435 112.5,159.5 Z"/></g>
<g><path style="opacity:1" fill="#e2dcb0" d="M 98.5,155.5 C 106.414,160.073 114.08,165.073 121.5,170.5C 125.804,176.771 130.804,182.437 136.5,187.5C 136.796,189.403 137.463,191.07 138.5,192.5C 139.673,194.504 141.34,196.004 143.5,197C 146.95,197.175 150.283,197.342 153.5,197.5C 146.773,211.356 140.44,225.356 134.5,239.5C 133.662,239.158 133.328,238.492 133.5,237.5C 124.836,218.838 116.169,200.171 107.5,181.5C 106.649,175.079 104.149,169.413 100,164.5C 99.5065,162.866 99.3398,161.199 99.5,159.5C 98.1667,159.5 96.8333,159.5 95.5,159.5C 95.5,158.167 95.5,156.833 95.5,155.5C 96.5,155.5 97.5,155.5 98.5,155.5 Z"/></g>
<g><path style="opacity:1" fill="#4c251b" d="M 376.5,163.5 C 377.029,169.913 375.696,175.913 372.5,181.5C 371.575,182.562 370.575,182.562 369.5,181.5C 369.334,175.824 369.501,170.157 370,164.5C 370.519,163.484 371.353,162.818 372.5,162.5C 373.849,162.846 375.183,163.179 376.5,163.5 Z"/></g>
<g><path style="opacity:1" fill="#c6b37a" d="M 142.5,172.5 C 140.494,173.511 138.494,174.511 136.5,175.5C 134.893,175.363 133.559,174.696 132.5,173.5C 134.901,172.642 136.901,171.309 138.5,169.5C 140.601,167.891 142.935,167.391 145.5,168C 145.957,168.414 146.291,168.914 146.5,169.5C 145.099,170.521 143.765,171.521 142.5,172.5 Z"/></g>
<g><path style="opacity:1" fill="#7f5632" d="M 389.5,168.5 C 391.011,169.502 392.678,170.169 394.5,170.5C 391.861,172.473 389.527,174.806 387.5,177.5C 385.139,178.435 382.972,179.768 381,181.5C 380.833,181.167 380.667,180.833 380.5,180.5C 383.055,176.006 386.055,172.006 389.5,168.5 Z"/></g>
<g><path style="opacity:1" fill="#926a45" d="M 320.5,142.5 C 336.276,145.389 351.942,148.389 367.5,151.5C 368.167,152.167 368.833,152.833 369.5,153.5C 353.275,150.879 337.108,147.879 321,144.5C 320.5,144.833 320,145.167 319.5,145.5C 330.523,158.688 341.356,172.022 352,185.5C 353.129,187.141 354.629,188.141 356.5,188.5C 357.908,194.238 361.574,196.904 367.5,196.5C 367.842,197.338 368.508,197.672 369.5,197.5C 364.607,199.339 360.274,198.339 356.5,194.5C 343.547,177.545 330.213,160.878 316.5,144.5C 318.153,144.34 319.486,143.674 320.5,142.5 Z"/></g>
<g><path style="opacity:1" fill="#c8bb8d" d="M 121.5,170.5 C 122.167,170.5 122.833,170.5 123.5,170.5C 127.847,174.845 132.514,178.845 137.5,182.5C 138.933,184.518 138.599,186.185 136.5,187.5C 130.804,182.437 125.804,176.771 121.5,170.5 Z"/></g>
<g><path style="opacity:1" fill="#8a6541" d="M 258.5,163.5 C 259.972,167.919 260.638,172.586 260.5,177.5C 259.504,193.658 259.17,209.991 259.5,226.5C 258.833,227.167 258.167,227.833 257.5,228.5C 257.432,215.723 257.432,202.723 257.5,189.5C 257.255,180.792 257.589,172.126 258.5,163.5 Z"/></g>
<g><path style="opacity:1" fill="#3a1818" d="M 270.5,137.5 C 282.595,164.769 293.928,192.435 304.5,220.5C 302.549,218.52 301.049,216.187 300,213.5C 290.347,188.581 280.514,163.914 270.5,139.5C 270.5,138.833 270.5,138.167 270.5,137.5 Z"/></g>
<g><path style="opacity:1" fill="#26223a" d="M 146.5,180.5 C 151.77,179.899 155.437,181.899 157.5,186.5C 156.585,188.754 155.252,190.754 153.5,192.5C 149.457,194.154 145.623,193.821 142,191.5C 140.389,186.301 141.889,182.634 146.5,180.5 Z"/></g>
<g><path style="opacity:1" fill="#a73435" d="M 84.5,144.5 C 83.8902,145.391 83.5569,146.391 83.5,147.5C 83.5,148.167 83.5,148.833 83.5,149.5C 83.1667,149.5 82.8333,149.5 82.5,149.5C 81.5009,212.331 81.1676,275.331 81.5,338.5C 80.6981,337.048 80.1981,335.382 80,333.5C 79.3333,338.833 79.3333,344.167 80,349.5C 81.045,350.373 81.8783,351.373 82.5,352.5C 80.9826,352.489 79.8159,351.823 79,350.5C 78.6667,347.167 78.3333,343.833 78,340.5C 77.5275,282.969 77.3609,225.803 77.5,169C 78.3149,161.913 78.8149,154.747 79,147.5C 80.4877,145.84 82.321,144.84 84.5,144.5 Z"/></g>
<g><path style="opacity:1" fill="#633d28" d="M 258.5,163.5 C 257.589,172.126 257.255,180.792 257.5,189.5C 256.681,186.695 256.181,183.695 256,180.5C 255.667,180.833 255.333,181.167 255,181.5C 254.667,196.833 254.333,212.167 254,227.5C 252.991,229.025 252.491,230.692 252.5,232.5C 258.259,232.214 263.925,232.548 269.5,233.5C 260.029,233.691 250.362,233.691 240.5,233.5C 240.167,230.5 241.5,229.167 244.5,229.5C 245.833,229.5 247.167,229.5 248.5,229.5C 249.5,229.5 250.5,229.5 251.5,229.5C 251.667,216.496 251.5,203.496 251,190.5C 249.981,192.502 249.148,194.502 248.5,196.5C 248.167,196.5 247.833,196.5 247.5,196.5C 245.32,197.855 243.32,197.689 241.5,196C 247.232,191.613 251.398,186.113 254,179.5C 254.429,171.809 254.429,164.143 254,156.5C 256.02,158.551 257.52,160.884 258.5,163.5 Z"/></g>
<g><path style="opacity:1" fill="#251f30" d="M 367.5,182.5 C 368.688,183.364 369.855,184.364 371,185.5C 373.64,190.521 372.473,194.188 367.5,196.5C 361.574,196.904 357.908,194.238 356.5,188.5C 358.858,184.153 362.525,182.153 367.5,182.5 Z"/></g>
<g><path style="opacity:1" fill="#321814" d="M 237.5,142.5 C 237.5,143.167 237.5,143.833 237.5,144.5C 232.479,156.952 227.312,169.285 222,181.5C 218.445,191.376 214.445,201.042 210,210.5C 207.03,220.424 203.53,230.09 199.5,239.5C 198.764,241.229 197.43,242.229 195.5,242.5C 208.988,208.869 222.988,175.535 237.5,142.5 Z"/></g>
<g><path style="opacity:1" fill="#a17e59" d="M 142.5,178.5 C 143.514,179.674 144.847,180.34 146.5,180.5C 141.889,182.634 140.389,186.301 142,191.5C 145.623,193.821 149.457,194.154 153.5,192.5C 153.389,193.117 153.056,193.617 152.5,194C 147.669,194.778 143.003,194.278 138.5,192.5C 137.463,191.07 136.796,189.403 136.5,187.5C 138.599,186.185 138.933,184.518 137.5,182.5C 139.167,181.167 140.833,179.833 142.5,178.5 Z"/></g>
<g><path style="opacity:1" fill="#dbd2a2" d="M 419.5,156.5 C 418.331,159.511 416.664,162.178 414.5,164.5C 412.412,166.336 411.079,168.669 410.5,171.5C 399.552,195.745 389.385,220.412 380,245.5C 373.488,230.479 366.988,215.479 360.5,200.5C 366.34,202.73 371.007,201.396 374.5,196.5C 376.276,192.266 378.109,187.933 380,183.5C 382.844,181.841 385.344,179.841 387.5,177.5C 389.527,174.806 391.861,172.473 394.5,170.5C 397.833,167.5 401.167,164.5 404.5,161.5C 407.075,158.767 410.075,156.767 413.5,155.5C 415.262,155.643 416.929,155.309 418.5,154.5C 419.298,154.957 419.631,155.624 419.5,156.5 Z"/></g>
<g><path style="opacity:1" fill="#401f16" d="M 257.5,189.5 C 257.432,202.723 257.432,215.723 257.5,228.5C 261.298,229.483 265.298,229.817 269.5,229.5C 269.5,230.833 269.5,232.167 269.5,233.5C 263.925,232.548 258.259,232.214 252.5,232.5C 252.491,230.692 252.991,229.025 254,227.5C 254.333,212.167 254.667,196.833 255,181.5C 255.333,181.167 255.667,180.833 256,180.5C 256.181,183.695 256.681,186.695 257.5,189.5 Z"/></g>
<g><path style="opacity:1" fill="#78031c" d="M 270.5,139.5 C 280.514,163.914 290.347,188.581 300,213.5C 301.049,216.187 302.549,218.52 304.5,220.5C 306.043,228.128 308.377,235.461 311.5,242.5C 309.08,242.708 306.747,242.374 304.5,241.5C 302.433,238.141 301.1,234.474 300.5,230.5C 299.265,229.66 298.265,228.66 297.5,227.5C 295.548,220.402 293.382,213.402 291,206.5C 288.734,203.633 286.901,200.633 285.5,197.5C 284.495,194.279 283.661,190.946 283,187.5C 275.331,171.111 268.497,154.277 262.5,137C 262.93,135.566 263.764,134.399 265,133.5C 266.36,136.023 268.193,138.023 270.5,139.5 Z"/></g>
<g><path style="opacity:1" fill="#89643f" d="M 101.5,171.5 C 103.5,174.833 105.5,178.167 107.5,181.5C 116.169,200.171 124.836,218.838 133.5,237.5C 132.833,237.5 132.5,237.833 132.5,238.5C 122.38,217.591 112.214,196.591 102,175.5C 101.5,192.83 101.333,210.163 101.5,227.5C 100.187,208.961 100.187,190.294 101.5,171.5 Z"/></g>
<g><path style="opacity:1" fill="#734329" d="M 356.5,194.5 C 360.274,198.339 364.607,199.339 369.5,197.5C 371.371,197.141 372.871,196.141 374,194.5C 374.464,195.094 374.631,195.761 374.5,196.5C 371.007,201.396 366.34,202.73 360.5,200.5C 360.167,199.5 359.5,198.833 358.5,198.5C 356.284,199.203 354.451,200.536 353,202.5C 341.303,217.687 329.47,232.687 317.5,247.5C 317.218,246.222 316.551,245.222 315.5,244.5C 318.056,243.457 320.223,241.79 322,239.5C 333.716,224.624 345.216,209.624 356.5,194.5 Z"/></g>
<g><path style="opacity:1" fill="#ab906c" d="M 97.5,165.5 C 98.9744,166.436 99.9744,167.77 100.5,169.5C 99.1667,190.167 99.1667,210.833 100.5,231.5C 102.262,231.357 103.929,231.691 105.5,232.5C 106.497,239.134 106.83,245.8 106.5,252.5C 105.833,246.654 105.167,240.654 104.5,234.5C 103.252,233.96 102.085,233.293 101,232.5C 100.505,234.473 100.338,236.473 100.5,238.5C 100.167,238.5 99.8333,238.5 99.5,238.5C 98.8743,214.14 98.2076,189.807 97.5,165.5 Z"/></g>
<g><path style="opacity:1" fill="#e9e4bb" d="M 192.5,244.5 C 192.5,245.167 192.5,245.833 192.5,246.5C 192.628,248.655 192.128,250.655 191,252.5C 179.333,264.167 167.667,275.833 156,287.5C 155.292,286.619 154.458,285.953 153.5,285.5C 149.406,270.216 143.739,255.55 136.5,241.5C 136.5,240.833 136.5,240.167 136.5,239.5C 142.252,225.322 148.586,211.322 155.5,197.5C 168.238,212.898 180.572,228.565 192.5,244.5 Z"/></g>
<g><path style="opacity:1" fill="#4d1617" d="M 226.5,190.5 C 221.5,204.662 216,218.662 210,232.5C 208.438,236.014 207.605,239.681 207.5,243.5C 207.5,243.833 207.5,244.167 207.5,244.5C 205.824,243.817 205.157,242.483 205.5,240.5C 211,227.509 215.833,214.176 220,200.5C 221.938,196.941 224.105,193.607 226.5,190.5 Z"/></g>
<g><path style="opacity:1" fill="#855e37" d="M 410.5,171.5 C 410.557,172.609 410.89,173.609 411.5,174.5C 410.5,174.833 409.833,175.5 409.5,176.5C 403.556,190.721 397.89,205.055 392.5,219.5C 388.551,228.744 384.551,238.077 380.5,247.5C 384.373,254.788 387.04,262.455 388.5,270.5C 388.5,271.833 388.5,273.167 388.5,274.5C 385.448,266.859 382.281,259.193 379,251.5C 376,258.833 373,266.167 370,273.5C 367.897,278.302 366.731,283.302 366.5,288.5C 365.5,288.167 364.833,287.5 364.5,286.5C 368.536,273.558 372.869,260.725 377.5,248C 371.588,231.342 365.255,214.842 358.5,198.5C 359.5,198.833 360.167,199.5 360.5,200.5C 366.988,215.479 373.488,230.479 380,245.5C 389.385,220.412 399.552,195.745 410.5,171.5 Z"/></g>
<g><path style="opacity:1" fill="#381c1a" d="M 248.5,229.5 C 248.5,218.5 248.5,207.5 248.5,196.5C 249.148,194.502 249.981,192.502 251,190.5C 251.5,203.496 251.667,216.496 251.5,229.5C 250.5,229.5 249.5,229.5 248.5,229.5 Z"/></g>
<g><path style="opacity:1" fill="#897354" d="M 247.5,196.5 C 247.833,196.5 248.167,196.5 248.5,196.5C 248.5,207.5 248.5,218.5 248.5,229.5C 247.167,229.5 245.833,229.5 244.5,229.5C 245.209,228.596 246.209,228.263 247.5,228.5C 247.5,217.833 247.5,207.167 247.5,196.5 Z"/></g>
<g><path style="opacity:1" fill="#5e3823" d="M 100.5,169.5 C 100.833,170.167 101.167,170.833 101.5,171.5C 100.187,190.294 100.187,208.961 101.5,227.5C 104.249,227.726 106.916,227.393 109.5,226.5C 110.298,226.957 110.631,227.624 110.5,228.5C 107.167,228.5 103.833,228.5 100.5,228.5C 100.5,229.5 100.5,230.5 100.5,231.5C 99.1667,210.833 99.1667,190.167 100.5,169.5 Z"/></g>
<g><path style="opacity:1" fill="#760218" d="M 246.5,132.5 C 246.663,134.857 246.497,137.19 246,139.5C 237.842,155.744 231.342,172.744 226.5,190.5C 224.105,193.607 221.938,196.941 220,200.5C 215.833,214.176 211,227.509 205.5,240.5C 203.5,241.167 201.5,241.833 199.5,242.5C 199.5,241.5 199.5,240.5 199.5,239.5C 203.53,230.09 207.03,220.424 210,210.5C 214.445,201.042 218.445,191.376 222,181.5C 227.312,169.285 232.479,156.952 237.5,144.5C 239.064,141.726 240.897,139.059 243,136.5C 243.49,135.207 243.657,133.873 243.5,132.5C 244.5,132.5 245.5,132.5 246.5,132.5 Z"/></g>
<g><path style="opacity:1" fill="#755e38" d="M 260.5,177.5 C 261.073,186.649 261.407,195.816 261.5,205C 261.497,212.533 260.831,219.699 259.5,226.5C 259.17,209.991 259.504,193.658 260.5,177.5 Z"/></g>
<g><path style="opacity:1" fill="#e3deb2" d="M 358.5,198.5 C 365.255,214.842 371.588,231.342 377.5,248C 372.869,260.725 368.536,273.558 364.5,286.5C 364.167,286.5 363.833,286.5 363.5,286.5C 360.687,286.77 358.021,287.27 355.5,288C 343.298,275.631 330.965,263.465 318.5,251.5C 317.766,250.292 317.433,248.959 317.5,247.5C 329.47,232.687 341.303,217.687 353,202.5C 354.451,200.536 356.284,199.203 358.5,198.5 Z"/></g>
<g><path style="opacity:1" fill="#411717" d="M 285.5,197.5 C 286.901,200.633 288.734,203.633 291,206.5C 293.382,213.402 295.548,220.402 297.5,227.5C 292.93,217.803 288.93,207.803 285.5,197.5 Z"/></g>
<g><path style="opacity:1" fill="#e3daab" d="M 132.5,238.5 C 132.66,240.199 132.494,241.866 132,243.5C 127.136,254.263 122.969,265.263 119.5,276.5C 114.33,290.508 108.33,304.175 101.5,317.5C 101.333,298.497 101.5,279.497 102,260.5C 102.93,265.29 104.264,269.956 106,274.5C 108.293,277.134 110.46,277.134 112.5,274.5C 113.713,272.324 115.38,271.991 117.5,273.5C 118.466,271.604 118.799,269.604 118.5,267.5C 125.484,259.077 125.15,250.91 117.5,243C 114.503,242.245 112.003,243.078 110,245.5C 110.132,239.86 110.299,234.193 110.5,228.5C 110.631,227.624 110.298,226.957 109.5,226.5C 106.916,227.393 104.249,227.726 101.5,227.5C 101.333,210.163 101.5,192.83 102,175.5C 112.214,196.591 122.38,217.591 132.5,238.5 Z"/></g>
<g><path style="opacity:1" fill="#784d31" d="M 156.5,192.5 C 156.351,193.552 156.517,194.552 157,195.5C 169.766,211.092 181.933,227.092 193.5,243.5C 192.833,243.5 192.5,243.833 192.5,244.5C 180.572,228.565 168.238,212.898 155.5,197.5C 148.586,211.322 142.252,225.322 136.5,239.5C 136.062,238.494 135.396,238.494 134.5,239.5C 140.44,225.356 146.773,211.356 153.5,197.5C 150.283,197.342 146.95,197.175 143.5,197C 141.34,196.004 139.673,194.504 138.5,192.5C 143.003,194.278 147.669,194.778 152.5,194C 153.056,193.617 153.389,193.117 153.5,192.5C 154.798,191.884 155.798,191.884 156.5,192.5 Z"/></g>
<g><path style="opacity:1" fill="#d08c73" d="M 82.5,149.5 C 82.1675,215.335 82.5009,281.002 83.5,346.5C 83.5,347.167 83.1667,347.5 82.5,347.5C 81.5233,344.713 81.19,341.713 81.5,338.5C 81.1676,275.331 81.5009,212.331 82.5,149.5 Z"/></g>
<g><path style="opacity:1" fill="#e3d9ac" d="M 409.5,176.5 C 410.833,224.5 410.833,272.5 409.5,320.5C 403.754,308.002 398.254,295.335 393,282.5C 392.176,279.16 393.343,276.827 396.5,275.5C 398.504,274.327 400.004,272.66 401,270.5C 403.903,262.284 404.236,253.951 402,245.5C 400.695,242.039 398.529,239.372 395.5,237.5C 393.616,236.029 391.616,235.529 389.5,236C 388.941,235.275 388.608,234.442 388.5,233.5C 390.789,229.109 392.123,224.443 392.5,219.5C 397.89,205.055 403.556,190.721 409.5,176.5 Z"/></g>
<g><path style="opacity:1" fill="#4e2d1b" d="M 414.5,164.5 C 413.509,217.125 413.175,269.791 413.5,322.5C 412.71,323.609 412.21,324.942 412,326.5C 411.283,325.956 410.783,325.289 410.5,324.5C 410.5,323.5 410.5,322.5 410.5,321.5C 411.499,272.67 411.832,223.67 411.5,174.5C 410.89,173.609 410.557,172.609 410.5,171.5C 411.079,168.669 412.412,166.336 414.5,164.5 Z"/></g>
<g><path style="opacity:1" fill="#a89476" d="M 301.5,240.5 C 302.434,241.568 302.768,242.901 302.5,244.5C 270.833,244.5 239.167,244.5 207.5,244.5C 207.5,244.167 207.5,243.833 207.5,243.5C 238.833,243.5 270.167,243.5 301.5,243.5C 301.5,242.5 301.5,241.5 301.5,240.5 Z"/></g>
<g><path style="opacity:1" fill="#6f422c" d="M 110.5,228.5 C 110.299,234.193 110.132,239.86 110,245.5C 112.003,243.078 114.503,242.245 117.5,243C 125.15,250.91 125.484,259.077 118.5,267.5C 117.5,267.5 116.5,267.5 115.5,267.5C 122.662,261.69 123.328,255.19 117.5,248C 116.551,247.383 115.718,247.549 115,248.5C 113.838,254.445 113.338,260.445 113.5,266.5C 112.778,266.082 112.278,265.416 112,264.5C 111.617,265.056 111.117,265.389 110.5,265.5C 111.392,260.562 111.726,255.562 111.5,250.5C 109.486,250.392 107.82,251.058 106.5,252.5C 106.83,245.8 106.497,239.134 105.5,232.5C 103.929,231.691 102.262,231.357 100.5,231.5C 100.5,230.5 100.5,229.5 100.5,228.5C 103.833,228.5 107.167,228.5 110.5,228.5 Z"/></g>
<g><path style="opacity:1" fill="#47070d" d="M 304.5,220.5 C 307.763,228.596 311.43,236.596 315.5,244.5C 316.551,245.222 317.218,246.222 317.5,247.5C 317.433,248.959 317.766,250.292 318.5,251.5C 317.508,251.328 316.842,251.662 316.5,252.5C 316.167,252.5 315.833,252.5 315.5,252.5C 315.5,250.5 315.5,248.5 315.5,246.5C 279.151,247.16 243.151,246.494 207.5,244.5C 239.167,244.5 270.833,244.5 302.5,244.5C 302.768,242.901 302.434,241.568 301.5,240.5C 300.167,236.167 298.833,231.833 297.5,227.5C 298.265,228.66 299.265,229.66 300.5,230.5C 301.1,234.474 302.433,238.141 304.5,241.5C 306.747,242.374 309.08,242.708 311.5,242.5C 308.377,235.461 306.043,228.128 304.5,220.5 Z"/></g>
<g><path style="opacity:1" fill="#d9ca9e" d="M 392.5,219.5 C 392.123,224.443 390.789,229.109 388.5,233.5C 388.608,234.442 388.941,235.275 389.5,236C 391.616,235.529 393.616,236.029 395.5,237.5C 390.986,237.443 387.32,239.11 384.5,242.5C 387.91,244.976 390.076,248.31 391,252.5C 391.667,256.833 391.667,261.167 391,265.5C 390.901,267.653 390.067,269.319 388.5,270.5C 387.04,262.455 384.373,254.788 380.5,247.5C 384.551,238.077 388.551,228.744 392.5,219.5 Z"/></g>
<g><path style="opacity:1" fill="#633822" d="M 395.5,237.5 C 398.529,239.372 400.695,242.039 402,245.5C 404.236,253.951 403.903,262.284 401,270.5C 400.004,272.66 398.504,274.327 396.5,275.5C 395.5,275.5 394.5,275.5 393.5,275.5C 397.3,266.22 398.467,256.554 397,246.5C 396.803,244.139 395.636,242.472 393.5,241.5C 392.488,243.837 392.655,246.17 394,248.5C 394.667,254.5 394.667,260.5 394,266.5C 392.737,270.234 390.904,273.567 388.5,276.5C 388.5,275.833 388.5,275.167 388.5,274.5C 388.5,273.167 388.5,271.833 388.5,270.5C 390.067,269.319 390.901,267.653 391,265.5C 391.667,261.167 391.667,256.833 391,252.5C 390.076,248.31 387.91,244.976 384.5,242.5C 387.32,239.11 390.986,237.443 395.5,237.5 Z"/></g>
<g><path style="opacity:1" fill="#502318" d="M 133.5,237.5 C 133.328,238.492 133.662,239.158 134.5,239.5C 135.396,238.494 136.062,238.494 136.5,239.5C 136.5,240.167 136.5,240.833 136.5,241.5C 135.596,242.209 135.263,243.209 135.5,244.5C 130.5,255.833 125.5,267.167 120.5,278.5C 119.662,278.158 119.328,277.492 119.5,276.5C 122.969,265.263 127.136,254.263 132,243.5C 132.494,241.866 132.66,240.199 132.5,238.5C 132.5,237.833 132.833,237.5 133.5,237.5 Z"/></g>
<g><path style="opacity:1" fill="#600111" d="M 199.5,239.5 C 199.5,240.5 199.5,241.5 199.5,242.5C 201.5,241.833 203.5,241.167 205.5,240.5C 205.157,242.483 205.824,243.817 207.5,244.5C 243.151,246.494 279.151,247.16 315.5,246.5C 315.5,248.5 315.5,250.5 315.5,252.5C 315.672,253.492 315.338,254.158 314.5,254.5C 313.5,255.167 312.5,255.833 311.5,256.5C 311.414,255.504 311.748,254.671 312.5,254C 310.559,253.257 308.726,253.424 307,254.5C 305.757,259.545 303.924,264.212 301.5,268.5C 302.842,262.814 304.175,257.148 305.5,251.5C 303.5,251.5 301.5,251.5 299.5,251.5C 267.306,250.185 234.973,250.185 202.5,251.5C 202.704,253.685 203.37,255.685 204.5,257.5C 202.947,255.615 200.947,254.615 198.5,254.5C 198.517,256.565 198.85,258.565 199.5,260.5C 198.833,260.167 198.167,259.833 197.5,259.5C 196.539,256.945 195.206,254.612 193.5,252.5C 193.795,250.265 193.461,248.265 192.5,246.5C 192.5,245.833 192.5,245.167 192.5,244.5C 192.5,243.833 192.833,243.5 193.5,243.5C 194.167,243.167 194.833,242.833 195.5,242.5C 197.43,242.229 198.764,241.229 199.5,239.5 Z"/></g>
<g><path style="opacity:1" fill="#510c12" d="M 299.5,251.5 C 269.329,251.169 239.329,251.502 209.5,252.5C 207.516,252.484 206.516,253.484 206.5,255.5C 207.171,258.185 207.838,260.852 208.5,263.5C 206.99,261.678 205.657,259.678 204.5,257.5C 203.37,255.685 202.704,253.685 202.5,251.5C 234.973,250.185 267.306,250.185 299.5,251.5 Z"/></g>
<g><path style="opacity:1" fill="#dcd4a3" d="M 209.5,252.5 C 240.833,252.5 272.167,252.5 303.5,252.5C 291.641,291.91 278.474,330.91 264,369.5C 263.123,371.674 263.623,373.341 265.5,374.5C 265.396,376.703 264.73,378.703 263.5,380.5C 263.167,380.5 262.833,380.5 262.5,380.5C 261.353,371.108 256.853,369.108 249,374.5C 247.798,376.677 247.298,379.011 247.5,381.5C 246.442,380.4 245.608,379.066 245,377.5C 241.037,362.113 236.203,347.113 230.5,332.5C 230.5,332.167 230.5,331.833 230.5,331.5C 228.871,325.608 226.871,319.941 224.5,314.5C 219.749,297.581 214.415,280.915 208.5,264.5C 208.5,264.167 208.5,263.833 208.5,263.5C 207.838,260.852 207.171,258.185 206.5,255.5C 206.516,253.484 207.516,252.484 209.5,252.5 Z"/></g>
<g><path style="opacity:1" fill="#e2dbab" d="M 135.5,244.5 C 142.373,256.766 147.707,269.766 151.5,283.5C 150.757,284.182 150.091,284.849 149.5,285.5C 147.326,285.75 145.659,286.75 144.5,288.5C 132.597,299.128 120.263,309.295 107.5,319C 106.034,319.635 104.7,320.469 103.5,321.5C 102.702,321.043 102.369,320.376 102.5,319.5C 109.286,306.253 115.286,292.587 120.5,278.5C 125.5,267.167 130.5,255.833 135.5,244.5 Z"/></g>
<g><path style="opacity:1" fill="#d9ca9a" d="M 106.5,252.5 C 107.82,251.058 109.486,250.392 111.5,250.5C 111.726,255.562 111.392,260.562 110.5,265.5C 109.248,267.001 108.248,268.668 107.5,270.5C 105.489,268.333 104.322,265.666 104,262.5C 103.316,254.274 102.149,246.274 100.5,238.5C 100.338,236.473 100.505,234.473 101,232.5C 102.085,233.293 103.252,233.96 104.5,234.5C 105.167,240.654 105.833,246.654 106.5,252.5 Z"/></g>
<g><path style="opacity:1" fill="#75492b" d="M 230.5,260.5 C 245.504,260.333 260.504,260.5 275.5,261C 273.004,262.666 270.671,264.5 268.5,266.5C 257.833,265.167 247.167,265.167 236.5,266.5C 233.478,265.478 231.478,263.478 230.5,260.5 Z"/></g>
<g><path style="opacity:1" fill="#dccea0" d="M 115.5,267.5 C 114.508,267.672 113.842,267.338 113.5,266.5C 113.338,260.445 113.838,254.445 115,248.5C 115.718,247.549 116.551,247.383 117.5,248C 123.328,255.19 122.662,261.69 115.5,267.5 Z"/></g>
<g><path style="opacity:1" fill="#dad2a1" d="M 315.5,252.5 C 315.833,252.5 316.167,252.5 316.5,252.5C 317.239,252.369 317.906,252.536 318.5,253C 331.423,265.755 344.09,278.589 356.5,291.5C 354.073,293.508 353.073,296.174 353.5,299.5C 353.319,302.163 353.985,304.497 355.5,306.5C 354.833,306.5 354.5,306.833 354.5,307.5C 343.418,326.665 332.085,345.665 320.5,364.5C 319.25,364.423 318.417,363.756 318,362.5C 310.725,366.554 303.225,370.22 295.5,373.5C 295.137,374.183 294.804,374.85 294.5,375.5C 289.33,376.395 284.663,378.395 280.5,381.5C 280.264,380.753 279.93,379.92 279.5,379C 278.234,378.691 277.067,378.191 276,377.5C 275.503,374.854 275.336,372.187 275.5,369.5C 277.942,369.881 278.609,369.214 277.5,367.5C 279.183,363.296 280.683,358.962 282,354.5C 282.333,354.833 282.667,355.167 283,355.5C 283.197,352.308 284.03,349.308 285.5,346.5C 284.691,344.929 284.357,343.262 284.5,341.5C 294.5,312.5 304.5,283.5 314.5,254.5C 315.338,254.158 315.672,253.492 315.5,252.5 Z"/></g>
<g><path style="opacity:1" fill="#75303b" d="M 431.5,148.5 C 432.289,148.783 432.956,149.283 433.5,150C 432.835,216.598 432.168,283.098 431.5,349.5C 431.5,348.5 431.5,347.5 431.5,346.5C 431.5,280.5 431.5,214.5 431.5,148.5 Z"/></g>
<g><path style="opacity:1" fill="#977e54" d="M 136.5,241.5 C 143.739,255.55 149.406,270.216 153.5,285.5C 152.167,285.5 150.833,285.5 149.5,285.5C 150.091,284.849 150.757,284.182 151.5,283.5C 147.707,269.766 142.373,256.766 135.5,244.5C 135.263,243.209 135.596,242.209 136.5,241.5 Z"/></g>
<g><path style="opacity:1" fill="#e0daab" d="M 193.5,252.5 C 195.206,254.612 196.539,256.945 197.5,259.5C 207.196,291.92 217.862,323.92 229.5,355.5C 231.237,362.71 233.57,369.71 236.5,376.5C 236.261,378.467 236.594,380.301 237.5,382C 236.421,382.956 235.255,383.789 234,384.5C 221.975,378.57 210.142,372.237 198.5,365.5C 196.284,364.797 194.451,363.464 193,361.5C 182,344.167 171,326.833 160,309.5C 158.629,307.959 157.129,306.625 155.5,305.5C 158.722,300.902 159.056,296.235 156.5,291.5C 156.5,290.833 156.5,290.167 156.5,289.5C 169.194,277.473 181.527,265.14 193.5,252.5 Z"/></g>
<g><path style="opacity:1" fill="#c0a676" d="M 393.5,275.5 C 392.685,276.429 391.852,277.429 391,278.5C 390.617,277.944 390.117,277.611 389.5,277.5C 388.833,277.5 388.5,277.167 388.5,276.5C 390.904,273.567 392.737,270.234 394,266.5C 394.667,260.5 394.667,254.5 394,248.5C 392.655,246.17 392.488,243.837 393.5,241.5C 395.636,242.472 396.803,244.139 397,246.5C 398.467,256.554 397.3,266.22 393.5,275.5 Z"/></g>
<g><path style="opacity:1" fill="#693e26" d="M 192.5,246.5 C 193.461,248.265 193.795,250.265 193.5,252.5C 181.527,265.14 169.194,277.473 156.5,289.5C 152.709,287.226 148.709,286.893 144.5,288.5C 145.659,286.75 147.326,285.75 149.5,285.5C 150.833,285.5 152.167,285.5 153.5,285.5C 154.458,285.953 155.292,286.619 156,287.5C 167.667,275.833 179.333,264.167 191,252.5C 192.128,250.655 192.628,248.655 192.5,246.5 Z"/></g>
<g><path style="opacity:1" fill="#72472e" d="M 316.5,252.5 C 316.842,251.662 317.508,251.328 318.5,251.5C 330.965,263.465 343.298,275.631 355.5,288C 358.021,287.27 360.687,286.77 363.5,286.5C 362.192,287.232 360.858,288.066 359.5,289C 360.056,289.383 360.389,289.883 360.5,290.5C 360.5,290.833 360.5,291.167 360.5,291.5C 359.167,291.5 357.833,291.5 356.5,291.5C 344.09,278.589 331.423,265.755 318.5,253C 317.906,252.536 317.239,252.369 316.5,252.5 Z"/></g>
<g><path style="opacity:1" fill="#4b251b" d="M 113.5,266.5 C 113.842,267.338 114.508,267.672 115.5,267.5C 116.5,267.5 117.5,267.5 118.5,267.5C 118.799,269.604 118.466,271.604 117.5,273.5C 115.38,271.991 113.713,272.324 112.5,274.5C 110.304,274.435 108.304,273.768 106.5,272.5C 106.863,271.817 107.196,271.15 107.5,270.5C 108.248,268.668 109.248,267.001 110.5,265.5C 111.117,265.389 111.617,265.056 112,264.5C 112.278,265.416 112.778,266.082 113.5,266.5 Z"/></g>
<g><path style="opacity:1" fill="#301310" d="M 236.5,266.5 C 247.167,265.167 257.833,265.167 268.5,266.5C 263.275,270.731 259.608,276.065 257.5,282.5C 255.508,282.672 253.842,282.005 252.5,280.5C 252.223,275.229 249.556,272.229 244.5,271.5C 241.319,270.651 238.652,268.985 236.5,266.5 Z"/></g>
<g><path style="opacity:1" fill="#dcd2a1" d="M 388.5,274.5 C 388.5,275.167 388.5,275.833 388.5,276.5C 388.5,277.167 388.833,277.5 389.5,277.5C 393.818,290.476 398.985,303.142 405,315.5C 405.749,316.635 405.583,317.635 404.5,318.5C 392.777,310.309 381.443,301.643 370.5,292.5C 369.167,291.167 367.833,289.833 366.5,288.5C 366.731,283.302 367.897,278.302 370,273.5C 373,266.167 376,258.833 379,251.5C 382.281,259.193 385.448,266.859 388.5,274.5 Z"/></g>
<g><path style="opacity:1" fill="#613d25" d="M 99.5,238.5 C 99.8333,238.5 100.167,238.5 100.5,238.5C 102.149,246.274 103.316,254.274 104,262.5C 104.322,265.666 105.489,268.333 107.5,270.5C 107.196,271.15 106.863,271.817 106.5,272.5C 108.304,273.768 110.304,274.435 112.5,274.5C 110.46,277.134 108.293,277.134 106,274.5C 104.264,269.956 102.93,265.29 102,260.5C 101.5,279.497 101.333,298.497 101.5,317.5C 101.328,318.492 101.662,319.158 102.5,319.5C 102.369,320.376 102.702,321.043 103.5,321.5C 104.7,320.469 106.034,319.635 107.5,319C 120.263,309.295 132.597,299.128 144.5,288.5C 143.4,289.605 142.733,290.938 142.5,292.5C 139.5,295.833 136.5,299.167 133.5,302.5C 131.2,304.984 128.533,306.984 125.5,308.5C 117.315,314.518 108.815,320.185 100,325.5C 99.5,302.502 99.3334,279.502 99.5,256.5C 99.5,250.5 99.5,244.5 99.5,238.5 Z"/></g>
<g><path style="opacity:1" fill="#5e2f1a" d="M 240.5,274.5 C 244.784,275.385 246.284,278.051 245,282.5C 242.839,286.124 239.672,287.291 235.5,286C 234.296,282.809 235.463,280.643 239,279.5C 240.009,277.975 240.509,276.308 240.5,274.5 Z"/></g>
<g><path style="opacity:1" fill="#7a5e38" d="M 230.5,260.5 C 246.338,259.173 262.338,259.173 278.5,260.5C 267.335,269.154 260.501,280.488 258,294.5C 255.665,314.471 256.499,334.304 260.5,354C 260.43,354.765 260.097,355.265 259.5,355.5C 257.53,351.166 256.364,346.5 256,341.5C 255.399,328.328 254.566,315.328 253.5,302.5C 254.45,295.748 255.784,289.082 257.5,282.5C 259.608,276.065 263.275,270.731 268.5,266.5C 270.671,264.5 273.004,262.666 275.5,261C 260.504,260.5 245.504,260.333 230.5,260.5 Z"/></g>
<g><path style="opacity:1" fill="#77031b" d="M 204.5,257.5 C 205.657,259.678 206.99,261.678 208.5,263.5C 208.5,263.833 208.5,264.167 208.5,264.5C 208.949,268.527 209.616,272.527 210.5,276.5C 215.188,288.214 219.022,300.214 222,312.5C 222.417,313.756 223.25,314.423 224.5,314.5C 225.342,320.7 227.342,326.367 230.5,331.5C 230.5,331.833 230.5,332.167 230.5,332.5C 232.146,338.31 233.313,344.31 234,350.5C 236.333,355.833 238.667,361.167 241,366.5C 241.825,370.211 241.659,373.878 240.5,377.5C 239.583,376.873 238.583,376.539 237.5,376.5C 236.972,372.788 236.138,369.121 235,365.5C 233.166,362.137 231.333,358.803 229.5,355.5C 219.218,323.932 209.218,292.266 199.5,260.5C 198.85,258.565 198.517,256.565 198.5,254.5C 200.947,254.615 202.947,255.615 204.5,257.5 Z"/></g>
<g><path style="opacity:1" fill="#7f5d38" d="M 393.5,275.5 C 394.5,275.5 395.5,275.5 396.5,275.5C 393.343,276.827 392.176,279.16 393,282.5C 398.254,295.335 403.754,308.002 409.5,320.5C 409.5,321.167 409.833,321.5 410.5,321.5C 410.5,322.5 410.5,323.5 410.5,324.5C 395.728,316.392 382.395,306.392 370.5,294.5C 370.5,293.833 370.5,293.167 370.5,292.5C 381.443,301.643 392.777,310.309 404.5,318.5C 405.583,317.635 405.749,316.635 405,315.5C 398.985,303.142 393.818,290.476 389.5,277.5C 390.117,277.611 390.617,277.944 391,278.5C 391.852,277.429 392.685,276.429 393.5,275.5 Z"/></g>
<g><path style="opacity:1" fill="#995d43" d="M 156.5,289.5 C 156.5,290.167 156.5,290.833 156.5,291.5C 152.125,288.537 148.125,288.871 144.5,292.5C 143.833,292.5 143.167,292.5 142.5,292.5C 142.733,290.938 143.4,289.605 144.5,288.5C 148.709,286.893 152.709,287.226 156.5,289.5 Z"/></g>
<g><path style="opacity:1" fill="#421313" d="M 197.5,259.5 C 198.167,259.833 198.833,260.167 199.5,260.5C 209.218,292.266 219.218,323.932 229.5,355.5C 217.862,323.92 207.196,291.92 197.5,259.5 Z"/></g>
<g><path style="opacity:1" fill="#262338" d="M 156.5,291.5 C 159.056,296.235 158.722,300.902 155.5,305.5C 152.167,306.833 148.833,306.833 145.5,305.5C 141.019,301.323 140.686,296.99 144.5,292.5C 148.125,288.871 152.125,288.537 156.5,291.5 Z"/></g>
<g><path style="opacity:1" fill="#3f1317" d="M 314.5,254.5 C 304.5,283.5 294.5,312.5 284.5,341.5C 281.127,350.773 277.627,360.107 274,369.5C 272.726,372.391 271.226,375.058 269.5,377.5C 271.688,370.399 274.021,363.399 276.5,356.5C 284.515,335.32 292.349,313.987 300,292.5C 301.206,286.449 303.206,280.782 306,275.5C 307.281,268.957 309.115,262.623 311.5,256.5C 312.5,255.833 313.5,255.167 314.5,254.5 Z"/></g>
<g><path style="opacity:1" fill="#eb5246" d="M 429.5,175.5 C 430.499,232.331 430.832,289.331 430.5,346.5C 430.719,347.675 430.386,348.675 429.5,349.5C 428.893,349.376 428.56,349.043 428.5,348.5C 428.5,348.167 428.5,347.833 428.5,347.5C 429.499,290.336 429.832,233.002 429.5,175.5 Z"/></g>
<g><path style="opacity:1" fill="#7d0119" d="M 311.5,256.5 C 309.115,262.623 307.281,268.957 306,275.5C 303.206,280.782 301.206,286.449 300,292.5C 292.349,313.987 284.515,335.32 276.5,356.5C 274.857,359.314 273.357,362.314 272,365.5C 270.977,364.4 270.477,363.067 270.5,361.5C 272.585,354.062 274.918,346.728 277.5,339.5C 285.395,315.799 293.395,292.132 301.5,268.5C 303.924,264.212 305.757,259.545 307,254.5C 308.726,253.424 310.559,253.257 312.5,254C 311.748,254.671 311.414,255.504 311.5,256.5 Z"/></g>
<g><path style="opacity:1" fill="#cbb894" d="M 411.5,174.5 C 411.832,223.67 411.499,272.67 410.5,321.5C 409.833,321.5 409.5,321.167 409.5,320.5C 410.833,272.5 410.833,224.5 409.5,176.5C 409.833,175.5 410.5,174.833 411.5,174.5 Z"/></g>
<g><path style="opacity:1" fill="#2a2837" d="M 356.5,291.5 C 357.833,291.5 359.167,291.5 360.5,291.5C 367.496,294.996 368.162,299.496 362.5,305C 360.323,306.202 357.989,306.702 355.5,306.5C 353.985,304.497 353.319,302.163 353.5,299.5C 353.073,296.174 354.073,293.508 356.5,291.5 Z"/></g>
<g><path style="opacity:1" fill="#45191b" d="M 208.5,264.5 C 214.415,280.915 219.749,297.581 224.5,314.5C 223.25,314.423 222.417,313.756 222,312.5C 219.022,300.214 215.188,288.214 210.5,276.5C 209.616,272.527 208.949,268.527 208.5,264.5 Z"/></g>
<g><path style="opacity:1" fill="#b78d6b" d="M 142.5,292.5 C 143.167,292.5 143.833,292.5 144.5,292.5C 140.686,296.99 141.019,301.323 145.5,305.5C 144.833,305.5 144.167,305.5 143.5,305.5C 143.167,305.5 142.833,305.5 142.5,305.5C 142.131,303.559 141.464,301.725 140.5,300C 139.5,299.333 138.5,299.333 137.5,300C 136.529,301.481 135.196,302.315 133.5,302.5C 136.5,299.167 139.5,295.833 142.5,292.5 Z"/></g>
<g><path style="opacity:1" fill="#43201b" d="M 209.5,252.5 C 239.329,251.502 269.329,251.169 299.5,251.5C 301.5,251.5 303.5,251.5 305.5,251.5C 304.175,257.148 302.842,262.814 301.5,268.5C 293.395,292.132 285.395,315.799 277.5,339.5C 274.352,344.74 271.852,350.406 270,356.5C 267.591,362.236 266.091,368.236 265.5,374.5C 263.623,373.341 263.123,371.674 264,369.5C 278.474,330.91 291.641,291.91 303.5,252.5C 272.167,252.5 240.833,252.5 209.5,252.5 Z"/></g>
<g><path style="opacity:1" fill="#c09978" d="M 360.5,291.5 C 360.5,291.167 360.5,290.833 360.5,290.5C 362.582,290.472 364.416,291.139 366,292.5C 367.149,295.393 367.649,298.393 367.5,301.5C 364.634,306.43 360.301,308.43 354.5,307.5C 354.5,306.833 354.833,306.5 355.5,306.5C 357.989,306.702 360.323,306.202 362.5,305C 368.162,299.496 367.496,294.996 360.5,291.5 Z"/></g>
<g><path style="opacity:1" fill="#785835" d="M 119.5,276.5 C 119.328,277.492 119.662,278.158 120.5,278.5C 115.286,292.587 109.286,306.253 102.5,319.5C 101.662,319.158 101.328,318.492 101.5,317.5C 108.33,304.175 114.33,290.508 119.5,276.5 Z"/></g>
<g><path style="opacity:1" fill="#7c351a" d="M 367.5,301.5 C 367.5,302.833 367.5,304.167 367.5,305.5C 366.657,307.173 365.324,308.34 363.5,309C 360.854,309.497 358.187,309.664 355.5,309.5C 355.167,308.833 354.833,308.167 354.5,307.5C 360.301,308.43 364.634,306.43 367.5,301.5 Z"/></g>
<g><path style="opacity:1" fill="#4d1f17" d="M 363.5,286.5 C 363.833,286.5 364.167,286.5 364.5,286.5C 364.833,287.5 365.5,288.167 366.5,288.5C 367.833,289.833 369.167,291.167 370.5,292.5C 370.5,293.167 370.5,293.833 370.5,294.5C 369.624,294.369 368.957,294.702 368.5,295.5C 377.332,302.826 386.332,309.993 395.5,317C 401.741,322.737 407.408,328.903 412.5,335.5C 397.844,326.69 383.844,316.856 370.5,306C 369.552,305.517 368.552,305.351 367.5,305.5C 367.5,304.167 367.5,302.833 367.5,301.5C 367.649,298.393 367.149,295.393 366,292.5C 364.416,291.139 362.582,290.472 360.5,290.5C 360.389,289.883 360.056,289.383 359.5,289C 360.858,288.066 362.192,287.232 363.5,286.5 Z"/></g>
<g><path style="opacity:1" fill="#dbd4a3" d="M 142.5,305.5 C 142.833,305.5 143.167,305.5 143.5,305.5C 146.785,309.889 150.785,310.555 155.5,307.5C 156.478,307.977 157.311,308.643 158,309.5C 168.667,327.504 179.833,345.171 191.5,362.5C 180.988,363.636 177.654,368.969 181.5,378.5C 169.189,371.343 157.189,363.676 145.5,355.5C 145.863,354.817 146.196,354.15 146.5,353.5C 149.988,353.078 153.321,352.245 156.5,351C 152.575,345.239 147.575,340.739 141.5,337.5C 130.459,333.405 125.293,337.071 126,348.5C 128.448,352.615 131.281,356.448 134.5,360C 133.906,360.464 133.239,360.631 132.5,360.5C 129.196,358.176 125.862,355.843 122.5,353.5C 118.251,351.539 113.917,349.872 109.5,348.5C 106.753,348.187 104.086,348.52 101.5,349.5C 102.167,350.167 102.833,350.833 103.5,351.5C 99.4742,352.48 95.4742,353.48 91.5,354.5C 87.6393,353.921 84.9726,351.921 83.5,348.5C 85.1288,347.375 86.6288,346.041 88,344.5C 87.9813,346.107 87.8146,347.774 87.5,349.5C 89.674,349.92 91.674,349.92 93.5,349.5C 92.624,348.749 91.624,348.249 90.5,348C 91.6341,346.984 91.3008,346.317 89.5,346C 90.8333,345.333 91.8333,344.333 92.5,343C 91.5509,342.383 90.7175,342.549 90,343.5C 89.5357,342.906 89.369,342.239 89.5,341.5C 91.612,341.398 93.612,340.898 95.5,340C 94.9781,339.439 94.6448,338.772 94.5,338C 95.3169,336.51 96.1502,335.01 97,333.5C 97.7083,334.381 98.5416,335.047 99.5,335.5C 104.305,332.929 108.972,330.096 113.5,327C 122.762,319.231 132.429,312.064 142.5,305.5 Z"/></g>
<g><path style="opacity:1" fill="#47201d" d="M 224.5,314.5 C 226.871,319.941 228.871,325.608 230.5,331.5C 227.342,326.367 225.342,320.7 224.5,314.5 Z"/></g>
<g><path style="opacity:1" fill="#431812" d="M 244.5,271.5 C 249.556,272.229 252.223,275.229 252.5,280.5C 253.842,282.005 255.508,282.672 257.5,282.5C 255.784,289.082 254.45,295.748 253.5,302.5C 252.884,320.943 253.884,339.276 256.5,357.5C 254.629,357.141 253.129,356.141 252,354.5C 249.806,351.446 248.139,348.112 247,344.5C 245.536,330.195 245.203,315.862 246,301.5C 247.507,294.985 249.007,288.485 250.5,282C 250.506,279.7 250.006,277.534 249,275.5C 247.333,274.267 245.833,272.933 244.5,271.5 Z"/></g>
<g><path style="opacity:1" fill="#4c1513" d="M 142.5,305.5 C 132.429,312.064 122.762,319.231 113.5,327C 108.972,330.096 104.305,332.929 99.5,335.5C 99.4914,333.692 99.9914,332.025 101,330.5C 108.957,322.798 117.123,315.465 125.5,308.5C 128.533,306.984 131.2,304.984 133.5,302.5C 135.196,302.315 136.529,301.481 137.5,300C 138.5,299.333 139.5,299.333 140.5,300C 141.464,301.725 142.131,303.559 142.5,305.5 Z"/></g>
<g><path style="opacity:1" fill="#805934" d="M 354.5,307.5 C 354.833,308.167 355.167,308.833 355.5,309.5C 344.944,327.602 334.111,345.602 323,363.5C 320.859,366.361 320.025,369.361 320.5,372.5C 318.801,372.527 317.467,373.194 316.5,374.5C 315.867,374.12 315.2,373.787 314.5,373.5C 314.863,372.817 315.196,372.15 315.5,371.5C 317.522,369.469 319.189,367.135 320.5,364.5C 332.085,345.665 343.418,326.665 354.5,307.5 Z"/></g>
<g><path style="opacity:1" fill="#d8ce9e" d="M 367.5,305.5 C 368.552,305.351 369.552,305.517 370.5,306C 383.844,316.856 397.844,326.69 412.5,335.5C 412.435,335.938 412.601,336.272 413,336.5C 413.249,335.376 413.749,334.376 414.5,333.5C 416.523,335.853 418.523,338.186 420.5,340.5C 420.511,342.017 421.177,343.184 422.5,344C 422,344.167 421.5,344.333 421,344.5C 419.3,343.073 417.467,342.24 415.5,342C 418.21,343.46 418.876,345.46 417.5,348C 418.094,348.464 418.761,348.631 419.5,348.5C 417.824,349.71 416.49,349.21 415.5,347C 416.167,346.667 416.833,346.333 417.5,346C 415.291,344.309 413.458,344.476 412,346.5C 408.31,345.168 405.31,346.168 403,349.5C 402.586,349.043 402.086,348.709 401.5,348.5C 399.925,349.456 398.258,350.123 396.5,350.5C 391.296,352.684 386.129,355.018 381,357.5C 379.97,357.164 379.47,356.497 379.5,355.5C 384.648,349.562 384.648,343.729 379.5,338C 376.961,337.204 374.628,337.371 372.5,338.5C 371.508,338.328 370.842,338.662 370.5,339.5C 362.866,343.099 359.7,349.099 361,357.5C 364.472,358.683 366.972,357.517 368.5,354C 368.167,353.5 367.833,353 367.5,352.5C 366.614,353.325 366.281,354.325 366.5,355.5C 365.325,355.719 364.325,355.386 363.5,354.5C 365.206,350.25 367.539,346.417 370.5,343C 371.448,342.517 372.448,342.351 373.5,342.5C 375.387,343.768 376.387,345.601 376.5,348C 375.967,350.226 375.3,352.393 374.5,354.5C 369.833,358.833 365.167,363.167 360.5,367.5C 340.968,378.766 321.301,389.766 301.5,400.5C 295.061,401.846 294.895,401.179 301,398.5C 302.752,395.328 304.752,392.328 307,389.5C 308.009,387.975 308.509,386.308 308.5,384.5C 310.448,381.379 312.615,378.379 315,375.5C 315.383,376.056 315.883,376.389 316.5,376.5C 317.792,382.31 321.125,384.143 326.5,382C 330.809,375.874 332.643,369.041 332,361.5C 338.083,357.541 344.249,353.708 350.5,350C 342.783,351.269 335.616,354.103 329,358.5C 328.167,364.5 327.333,370.5 326.5,376.5C 324.471,375.156 322.471,373.823 320.5,372.5C 320.025,369.361 320.859,366.361 323,363.5C 334.111,345.602 344.944,327.602 355.5,309.5C 358.187,309.664 360.854,309.497 363.5,309C 365.324,308.34 366.657,307.173 367.5,305.5 Z"/></g>
<g><path style="opacity:1" fill="#c8b185" d="M 370.5,294.5 C 382.395,306.392 395.728,316.392 410.5,324.5C 410.783,325.289 411.283,325.956 412,326.5C 412.21,324.942 412.71,323.609 413.5,322.5C 413.338,324.527 413.505,326.527 414,328.5C 416.446,332.394 418.612,336.394 420.5,340.5C 418.523,338.186 416.523,335.853 414.5,333.5C 413.749,334.376 413.249,335.376 413,336.5C 412.601,336.272 412.435,335.938 412.5,335.5C 407.408,328.903 401.741,322.737 395.5,317C 386.332,309.993 377.332,302.826 368.5,295.5C 368.957,294.702 369.624,294.369 370.5,294.5 Z"/></g>
<g><path style="opacity:1" fill="#c5b383" d="M 99.5,256.5 C 99.3334,279.502 99.5,302.502 100,325.5C 108.815,320.185 117.315,314.518 125.5,308.5C 117.123,315.465 108.957,322.798 101,330.5C 99.9914,332.025 99.4914,333.692 99.5,335.5C 98.5416,335.047 97.7083,334.381 97,333.5C 96.1502,335.01 95.3169,336.51 94.5,338C 94.6448,338.772 94.9781,339.439 95.5,340C 93.612,340.898 91.612,341.398 89.5,341.5C 92.0774,336.406 94.9108,331.406 98,326.5C 98.1679,302.996 98.6679,279.663 99.5,256.5 Z"/></g>
<g><path style="opacity:1" fill="#704629" d="M 141.5,337.5 C 147.575,340.739 152.575,345.239 156.5,351C 153.321,352.245 149.988,353.078 146.5,353.5C 145.167,353.833 143.833,354.167 142.5,354.5C 142.5,353.5 142.5,352.5 142.5,351.5C 144.216,351.371 145.883,351.038 147.5,350.5C 149.604,350.799 151.604,350.466 153.5,349.5C 151.452,346.257 148.785,344.09 145.5,343C 149.469,348.687 148.802,349.02 143.5,344C 140.167,342 136.833,342 133.5,344C 132.748,344.671 132.414,345.504 132.5,346.5C 131.732,347.263 131.232,348.263 131,349.5C 129.788,343.891 131.955,340.558 137.5,339.5C 138.583,339.539 139.583,339.873 140.5,340.5C 141.386,339.675 141.719,338.675 141.5,337.5 Z"/></g>
<g><path style="opacity:1" fill="#a4734c" d="M 137.5,339.5 C 131.955,340.558 129.788,343.891 131,349.5C 131.232,348.263 131.732,347.263 132.5,346.5C 132.21,349.785 132.877,352.785 134.5,355.5C 128.261,351.47 127.261,346.47 131.5,340.5C 133.409,339.652 135.409,339.318 137.5,339.5 Z"/></g>
<g><path style="opacity:1" fill="#c3ae7e" d="M 147.5,350.5 C 140.912,347.395 137.079,349.729 136,357.5C 135.283,356.956 134.783,356.289 134.5,355.5C 132.877,352.785 132.21,349.785 132.5,346.5C 132.414,345.504 132.748,344.671 133.5,344C 136.833,342 140.167,342 143.5,344C 148.802,349.02 149.469,348.687 145.5,343C 148.785,344.09 151.452,346.257 153.5,349.5C 151.604,350.466 149.604,350.799 147.5,350.5 Z"/></g>
<g><path style="opacity:1" fill="#764d32" d="M 372.5,338.5 C 374.628,337.371 376.961,337.204 379.5,338C 384.648,343.729 384.648,349.562 379.5,355.5C 378.833,355.833 378.167,356.167 377.5,356.5C 377.5,355.833 377.5,355.167 377.5,354.5C 381.476,349.401 381.476,344.234 377.5,339C 375.866,338.506 374.199,338.34 372.5,338.5 Z"/></g>
<g><path style="opacity:1" fill="#ab8866" d="M 420.5,340.5 C 422.543,343.543 425.21,345.876 428.5,347.5C 428.5,347.833 428.5,348.167 428.5,348.5C 428.167,348.5 427.833,348.5 427.5,348.5C 424.693,347.343 422.026,347.343 419.5,348.5C 418.761,348.631 418.094,348.464 417.5,348C 418.876,345.46 418.21,343.46 415.5,342C 417.467,342.24 419.3,343.073 421,344.5C 421.5,344.333 422,344.167 422.5,344C 421.177,343.184 420.511,342.017 420.5,340.5 Z"/></g>
<g><path style="opacity:1" fill="#482119" d="M 372.5,338.5 C 374.199,338.34 375.866,338.506 377.5,339C 381.476,344.234 381.476,349.401 377.5,354.5C 376.5,354.5 375.5,354.5 374.5,354.5C 375.3,352.393 375.967,350.226 376.5,348C 376.387,345.601 375.387,343.768 373.5,342.5C 372.1,341.9 371.1,340.9 370.5,339.5C 370.842,338.662 371.508,338.328 372.5,338.5 Z"/></g>
<g><path style="opacity:1" fill="#9c8b5d" d="M 89.5,341.5 C 89.369,342.239 89.5357,342.906 90,343.5C 90.7175,342.549 91.5509,342.383 92.5,343C 91.8333,344.333 90.8333,345.333 89.5,346C 91.3008,346.317 91.6341,346.984 90.5,348C 91.624,348.249 92.624,348.749 93.5,349.5C 91.674,349.92 89.674,349.92 87.5,349.5C 87.8146,347.774 87.9813,346.107 88,344.5C 86.6288,346.041 85.1288,347.375 83.5,348.5C 82.8333,348.5 82.5,348.167 82.5,347.5C 83.1667,347.5 83.5,347.167 83.5,346.5C 85.5,344.833 87.5,343.167 89.5,341.5 Z"/></g>
<g><path style="opacity:1" fill="#683a21" d="M 370.5,339.5 C 371.1,340.9 372.1,341.9 373.5,342.5C 372.448,342.351 371.448,342.517 370.5,343C 367.539,346.417 365.206,350.25 363.5,354.5C 364.325,355.386 365.325,355.719 366.5,355.5C 366.281,354.325 366.614,353.325 367.5,352.5C 367.833,353 368.167,353.5 368.5,354C 366.972,357.517 364.472,358.683 361,357.5C 359.7,349.099 362.866,343.099 370.5,339.5 Z"/></g>
<g><path style="opacity:1" fill="#9d805a" d="M 253.5,302.5 C 254.566,315.328 255.399,328.328 256,341.5C 256.364,346.5 257.53,351.166 259.5,355.5C 259.027,356.906 258.027,357.573 256.5,357.5C 253.884,339.276 252.884,320.943 253.5,302.5 Z"/></g>
<g><path style="opacity:1" fill="#e4daab" d="M 109.5,348.5 C 117.001,352.751 124.668,356.751 132.5,360.5C 140.84,365.672 149.507,370.338 158.5,374.5C 182.901,389.557 207.567,404.224 232.5,418.5C 234.313,421.647 236.98,423.647 240.5,424.5C 244.375,431.866 247.375,439.2 249.5,446.5C 210.901,425.198 172.567,403.365 134.5,381C 119.768,372.643 105.435,363.81 91.5,354.5C 95.4742,353.48 99.4742,352.48 103.5,351.5C 102.833,350.833 102.167,350.167 101.5,349.5C 104.086,348.52 106.753,348.187 109.5,348.5 Z"/></g>
<g><path style="opacity:1" fill="#7e3940" d="M 425.5,354.5 C 423.664,356.588 421.331,357.921 418.5,358.5C 420.336,356.412 422.669,355.079 425.5,354.5 Z"/></g>
<g><path style="opacity:1" fill="#643220" d="M 374.5,354.5 C 375.5,354.5 376.5,354.5 377.5,354.5C 377.5,355.167 377.5,355.833 377.5,356.5C 376.859,357.482 376.193,358.482 375.5,359.5C 375.957,360.298 376.624,360.631 377.5,360.5C 375.351,362.746 372.684,364.246 369.5,365C 367.273,367.935 364.606,369.935 361.5,371C 362.774,370.023 362.774,369.189 361.5,368.5C 360.833,368.5 360.5,368.167 360.5,367.5C 365.167,363.167 369.833,358.833 374.5,354.5 Z"/></g>
<g><path style="opacity:1" fill="#a4976a" d="M 109.5,348.5 C 113.917,349.872 118.251,351.539 122.5,353.5C 125.862,355.843 129.196,358.176 132.5,360.5C 124.668,356.751 117.001,352.751 109.5,348.5 Z"/></g>
<g><path style="opacity:1" fill="#9b8759" d="M 396.5,350.5 C 390.649,354.594 384.315,357.927 377.5,360.5C 376.624,360.631 375.957,360.298 375.5,359.5C 376.193,358.482 376.859,357.482 377.5,356.5C 378.167,356.167 378.833,355.833 379.5,355.5C 379.47,356.497 379.97,357.164 381,357.5C 386.129,355.018 391.296,352.684 396.5,350.5 Z"/></g>
<g><path style="opacity:1" fill="#e5d9a9" d="M 419.5,348.5 C 422.026,347.343 424.693,347.343 427.5,348.5C 427.063,350.074 426.063,351.241 424.5,352C 369.942,383.776 315.275,415.276 260.5,446.5C 259.957,446.44 259.624,446.107 259.5,445.5C 262.512,438.812 265.512,432.145 268.5,425.5C 269.766,424.91 271.099,424.41 272.5,424C 278.809,418.513 285.476,413.513 292.5,409C 315.563,395.474 338.563,381.974 361.5,368.5C 362.774,369.189 362.774,370.023 361.5,371C 364.606,369.935 367.273,367.935 369.5,365C 372.684,364.246 375.351,362.746 377.5,360.5C 384.315,357.927 390.649,354.594 396.5,350.5C 398.258,350.123 399.925,349.456 401.5,348.5C 402.086,348.709 402.586,349.043 403,349.5C 405.31,346.168 408.31,345.168 412,346.5C 413.458,344.476 415.291,344.309 417.5,346C 416.833,346.333 416.167,346.667 415.5,347C 416.49,349.21 417.824,349.71 419.5,348.5 Z"/></g>
<g><path style="opacity:1" fill="#633521" d="M 141.5,337.5 C 141.719,338.675 141.386,339.675 140.5,340.5C 139.583,339.873 138.583,339.539 137.5,339.5C 135.409,339.318 133.409,339.652 131.5,340.5C 127.261,346.47 128.261,351.47 134.5,355.5C 134.783,356.289 135.283,356.956 136,357.5C 137.079,349.729 140.912,347.395 147.5,350.5C 145.883,351.038 144.216,351.371 142.5,351.5C 142.5,352.5 142.5,353.5 142.5,354.5C 141.489,356.402 141.322,358.402 142,360.5C 147.812,364.976 153.645,369.309 159.5,373.5C 159.5,374.167 159.167,374.5 158.5,374.5C 149.507,370.338 140.84,365.672 132.5,360.5C 133.239,360.631 133.906,360.464 134.5,360C 131.281,356.448 128.448,352.615 126,348.5C 125.293,337.071 130.459,333.405 141.5,337.5 Z"/></g>
<g><path style="opacity:1" fill="#b33636" d="M 430.5,346.5 C 430.833,346.5 431.167,346.5 431.5,346.5C 431.5,347.5 431.5,348.5 431.5,349.5C 430.732,352.562 428.732,354.228 425.5,354.5C 422.669,355.079 420.336,356.412 418.5,358.5C 368.06,388.226 317.394,417.726 266.5,447C 262.727,448.97 258.894,450.803 255,452.5C 251.55,451.194 248.384,449.527 245.5,447.5C 246.833,447.5 248.167,447.5 249.5,447.5C 250.833,447.833 252.167,448.167 253.5,448.5C 254.167,448.5 254.833,448.5 255.5,448.5C 257.553,448.598 259.22,447.931 260.5,446.5C 315.275,415.276 369.942,383.776 424.5,352C 426.063,351.241 427.063,350.074 427.5,348.5C 427.833,348.5 428.167,348.5 428.5,348.5C 428.56,349.043 428.893,349.376 429.5,349.5C 430.386,348.675 430.719,347.675 430.5,346.5 Z"/></g>
<g><path style="opacity:1" fill="#6c0819" d="M 277.5,339.5 C 274.918,346.728 272.585,354.062 270.5,361.5C 270.477,363.067 270.977,364.4 272,365.5C 273.357,362.314 274.857,359.314 276.5,356.5C 274.021,363.399 271.688,370.399 269.5,377.5C 269.552,379.903 269.219,382.236 268.5,384.5C 267.698,383.048 267.198,381.382 267,379.5C 265.887,380.305 264.721,380.972 263.5,381.5C 263.5,381.167 263.5,380.833 263.5,380.5C 264.73,378.703 265.396,376.703 265.5,374.5C 266.091,368.236 267.591,362.236 270,356.5C 271.852,350.406 274.352,344.74 277.5,339.5 Z"/></g>
<g><path style="opacity:1" fill="#8c6441" d="M 143.5,305.5 C 144.167,305.5 144.833,305.5 145.5,305.5C 148.833,306.833 152.167,306.833 155.5,305.5C 157.129,306.625 158.629,307.959 160,309.5C 171,326.833 182,344.167 193,361.5C 194.451,363.464 196.284,364.797 198.5,365.5C 197.167,366.5 197.167,367.5 198.5,368.5C 197.833,368.5 197.167,368.5 196.5,368.5C 185.943,364.346 182.11,367.68 185,378.5C 188.742,382.747 192.908,386.414 197.5,389.5C 191.5,386.831 186.167,383.164 181.5,378.5C 177.654,368.969 180.988,363.636 191.5,362.5C 179.833,345.171 168.667,327.504 158,309.5C 157.311,308.643 156.478,307.977 155.5,307.5C 150.785,310.555 146.785,309.889 143.5,305.5 Z"/></g>
<g><path style="opacity:1" fill="#4a171c" d="M 229.5,355.5 C 231.333,358.803 233.166,362.137 235,365.5C 236.138,369.121 236.972,372.788 237.5,376.5C 237.167,376.5 236.833,376.5 236.5,376.5C 233.57,369.71 231.237,362.71 229.5,355.5 Z"/></g>
<g><path style="opacity:1" fill="#b59f70" d="M 315.5,371.5 C 315.196,372.15 314.863,372.817 314.5,373.5C 315.2,373.787 315.867,374.12 316.5,374.5C 316.5,375.167 316.5,375.833 316.5,376.5C 315.883,376.389 315.383,376.056 315,375.5C 312.615,378.379 310.448,381.379 308.5,384.5C 306.248,387.932 303.748,391.266 301,394.5C 303.871,386.772 307.871,379.439 313,372.5C 313.671,371.748 314.504,371.414 315.5,371.5 Z"/></g>
<g><path style="opacity:1" fill="#633520" d="M 316.5,376.5 C 316.5,375.833 316.5,375.167 316.5,374.5C 317.467,373.194 318.801,372.527 320.5,372.5C 322.471,373.823 324.471,375.156 326.5,376.5C 327.333,370.5 328.167,364.5 329,358.5C 335.616,354.103 342.783,351.269 350.5,350C 344.249,353.708 338.083,357.541 332,361.5C 332.643,369.041 330.809,375.874 326.5,382C 321.125,384.143 317.792,382.31 316.5,376.5 Z"/></g>
<g><path style="opacity:1" fill="#d0c297" d="M 146.5,353.5 C 146.196,354.15 145.863,354.817 145.5,355.5C 157.189,363.676 169.189,371.343 181.5,378.5C 186.167,383.164 191.5,386.831 197.5,389.5C 201.392,391.062 204.725,393.395 207.5,396.5C 210.998,400.831 214.998,404.664 219.5,408C 199.165,397.325 179.165,385.825 159.5,373.5C 153.645,369.309 147.812,364.976 142,360.5C 141.322,358.402 141.489,356.402 142.5,354.5C 143.833,354.167 145.167,353.833 146.5,353.5 Z"/></g>
<g><path style="opacity:1" fill="#52151b" d="M 230.5,332.5 C 236.203,347.113 241.037,362.113 245,377.5C 245.608,379.066 246.442,380.4 247.5,381.5C 247.511,383.017 248.177,384.184 249.5,385C 248.944,385.383 248.611,385.883 248.5,386.5C 247.833,392.5 247.167,398.5 246.5,404.5C 244.735,394.869 241.735,385.536 237.5,376.5C 238.583,376.539 239.583,376.873 240.5,377.5C 241.659,373.878 241.825,370.211 241,366.5C 238.667,361.167 236.333,355.833 234,350.5C 233.313,344.31 232.146,338.31 230.5,332.5 Z"/></g>
<g><path style="opacity:1" fill="#24253a" d="M 262.5,380.5 C 257.707,385.285 252.707,385.618 247.5,381.5C 247.298,379.011 247.798,376.677 249,374.5C 256.853,369.108 261.353,371.108 262.5,380.5 Z"/></g>
<g><path style="opacity:1" fill="#d4ca9a" d="M 198.5,365.5 C 210.142,372.237 221.975,378.57 234,384.5C 235.255,383.789 236.421,382.956 237.5,382C 236.594,380.301 236.261,378.467 236.5,376.5C 236.833,376.5 237.167,376.5 237.5,376.5C 241.735,385.536 244.735,394.869 246.5,404.5C 248.225,413.181 250.058,421.847 252,430.5C 253.072,436.455 253.572,442.455 253.5,448.5C 252.167,448.167 250.833,447.833 249.5,447.5C 249.5,447.167 249.5,446.833 249.5,446.5C 247.375,439.2 244.375,431.866 240.5,424.5C 241.525,424.103 241.692,423.437 241,422.5C 238.333,419.833 235.667,417.167 233,414.5C 232.493,415.996 232.993,417.163 234.5,418C 233.906,418.464 233.239,418.631 232.5,418.5C 224.791,410.458 216.458,403.124 207.5,396.5C 204.725,393.395 201.392,391.062 197.5,389.5C 192.908,386.414 188.742,382.747 185,378.5C 182.11,367.68 185.943,364.346 196.5,368.5C 207.167,382.006 217.667,395.672 228,409.5C 228.667,408.833 228.667,408.167 228,407.5C 221.945,399.778 216.278,391.778 211,383.5C 207.291,378.06 203.125,373.06 198.5,368.5C 197.167,367.5 197.167,366.5 198.5,365.5 Z"/></g>
<g><path style="opacity:1" fill="#93794f" d="M 196.5,368.5 C 197.167,368.5 197.833,368.5 198.5,368.5C 203.125,373.06 207.291,378.06 211,383.5C 216.278,391.778 221.945,399.778 228,407.5C 228.667,408.167 228.667,408.833 228,409.5C 217.667,395.672 207.167,382.006 196.5,368.5 Z"/></g>
<g><path style="opacity:1" fill="#d3c797" d="M 284.5,341.5 C 284.357,343.262 284.691,344.929 285.5,346.5C 284.03,349.308 283.197,352.308 283,355.5C 282.667,355.167 282.333,354.833 282,354.5C 280.683,358.962 279.183,363.296 277.5,367.5C 278.609,369.214 277.942,369.881 275.5,369.5C 275.336,372.187 275.503,374.854 276,377.5C 277.067,378.191 278.234,378.691 279.5,379C 279.93,379.92 280.264,380.753 280.5,381.5C 284.663,378.395 289.33,376.395 294.5,375.5C 297.619,376.55 300.452,375.883 303,373.5C 303.5,373.667 304,373.833 304.5,374C 302.519,374.605 302.185,375.605 303.5,377C 301.595,378.87 299.428,380.37 297,381.5C 295.305,383.793 294.638,386.127 295,388.5C 286.616,399.377 278.449,410.377 270.5,421.5C 268.896,422.287 268.229,423.62 268.5,425.5C 267.603,426.598 266.77,426.598 266,425.5C 264.667,426.167 263.667,427.167 263,428.5C 262.833,428 262.667,427.5 262.5,427C 265.753,418.042 268.753,409.042 271.5,400C 271.333,399.167 271.167,398.333 271,397.5C 270.366,401.585 269.199,402.085 267.5,399C 268.738,396.24 269.738,393.406 270.5,390.5C 269.757,389.818 269.091,389.151 268.5,388.5C 268.5,387.167 268.5,385.833 268.5,384.5C 269.219,382.236 269.552,379.903 269.5,377.5C 271.226,375.058 272.726,372.391 274,369.5C 277.627,360.107 281.127,350.773 284.5,341.5 Z"/></g>
<g><path style="opacity:1" fill="#ccbb8b" d="M 320.5,364.5 C 319.189,367.135 317.522,369.469 315.5,371.5C 314.504,371.414 313.671,371.748 313,372.5C 307.871,379.439 303.871,386.772 301,394.5C 303.748,391.266 306.248,387.932 308.5,384.5C 308.509,386.308 308.009,387.975 307,389.5C 304.752,392.328 302.752,395.328 301,398.5C 294.895,401.179 295.061,401.846 301.5,400.5C 299.324,402.515 296.824,404.182 294,405.5C 293.667,404.833 293.333,404.167 293,403.5C 286.078,410.358 278.578,416.358 270.5,421.5C 278.449,410.377 286.616,399.377 295,388.5C 294.638,386.127 295.305,383.793 297,381.5C 299.428,380.37 301.595,378.87 303.5,377C 302.185,375.605 302.519,374.605 304.5,374C 304,373.833 303.5,373.667 303,373.5C 300.452,375.883 297.619,376.55 294.5,375.5C 294.804,374.85 295.137,374.183 295.5,373.5C 303.225,370.22 310.725,366.554 318,362.5C 318.417,363.756 319.25,364.423 320.5,364.5 Z"/></g>
<g><path style="opacity:1" fill="#96705a" d="M 262.5,380.5 C 262.833,380.5 263.167,380.5 263.5,380.5C 263.5,380.833 263.5,381.167 263.5,381.5C 260.953,382.621 259.953,384.288 260.5,386.5C 256.5,385.167 252.5,385.167 248.5,386.5C 248.611,385.883 248.944,385.383 249.5,385C 248.177,384.184 247.511,383.017 247.5,381.5C 252.707,385.618 257.707,385.285 262.5,380.5 Z"/></g>
<g><path style="opacity:1" fill="#7e5e3d" d="M 159.5,373.5 C 179.165,385.825 199.165,397.325 219.5,408C 214.998,404.664 210.998,400.831 207.5,396.5C 216.458,403.124 224.791,410.458 232.5,418.5C 207.567,404.224 182.901,389.557 158.5,374.5C 159.167,374.5 159.5,374.167 159.5,373.5 Z"/></g>
<g><path style="opacity:1" fill="#734826" d="M 360.5,367.5 C 360.5,368.167 360.833,368.5 361.5,368.5C 338.563,381.974 315.563,395.474 292.5,409C 285.476,413.513 278.809,418.513 272.5,424C 271.099,424.41 269.766,424.91 268.5,425.5C 268.229,423.62 268.896,422.287 270.5,421.5C 278.578,416.358 286.078,410.358 293,403.5C 293.333,404.167 293.667,404.833 294,405.5C 296.824,404.182 299.324,402.515 301.5,400.5C 321.301,389.766 340.968,378.766 360.5,367.5 Z"/></g>
<g><path style="opacity:1" fill="#d6cb98" d="M 260.5,386.5 C 260.54,399.181 258.54,411.514 254.5,423.5C 251.21,411.384 249.21,399.051 248.5,386.5C 252.5,385.167 256.5,385.167 260.5,386.5 Z"/></g>
<g><path style="opacity:1" fill="#b22f29" d="M 81.5,338.5 C 81.19,341.713 81.5233,344.713 82.5,347.5C 82.5,348.167 82.8333,348.5 83.5,348.5C 84.9726,351.921 87.6393,353.921 91.5,354.5C 105.435,363.81 119.768,372.643 134.5,381C 172.567,403.365 210.901,425.198 249.5,446.5C 249.5,446.833 249.5,447.167 249.5,447.5C 248.167,447.5 246.833,447.5 245.5,447.5C 198.426,420.955 151.426,394.121 104.5,367C 97.2728,361.895 89.9395,357.061 82.5,352.5C 81.8783,351.373 81.045,350.373 80,349.5C 79.3333,344.167 79.3333,338.833 80,333.5C 80.1981,335.382 80.6981,337.048 81.5,338.5 Z"/></g>
<g><path style="opacity:1" fill="#947348" d="M 240.5,424.5 C 236.98,423.647 234.313,421.647 232.5,418.5C 233.239,418.631 233.906,418.464 234.5,418C 232.993,417.163 232.493,415.996 233,414.5C 235.667,417.167 238.333,419.833 241,422.5C 241.692,423.437 241.525,424.103 240.5,424.5 Z"/></g>
<g><path style="opacity:1" fill="#c6b688" d="M 268.5,388.5 C 269.091,389.151 269.757,389.818 270.5,390.5C 269.738,393.406 268.738,396.24 267.5,399C 269.199,402.085 270.366,401.585 271,397.5C 271.167,398.333 271.333,399.167 271.5,400C 268.753,409.042 265.753,418.042 262.5,427C 262.667,427.5 262.833,428 263,428.5C 263.667,427.167 264.667,426.167 266,425.5C 266.77,426.598 267.603,426.598 268.5,425.5C 265.512,432.145 262.512,438.812 259.5,445.5C 259.624,446.107 259.957,446.44 260.5,446.5C 259.22,447.931 257.553,448.598 255.5,448.5C 258.904,428.227 263.237,408.227 268.5,388.5 Z"/></g>
<g><path style="opacity:1" fill="#4c2019" d="M 268.5,384.5 C 268.5,385.833 268.5,387.167 268.5,388.5C 263.237,408.227 258.904,428.227 255.5,448.5C 254.833,448.5 254.167,448.5 253.5,448.5C 253.572,442.455 253.072,436.455 252,430.5C 250.058,421.847 248.225,413.181 246.5,404.5C 247.167,398.5 247.833,392.5 248.5,386.5C 249.21,399.051 251.21,411.384 254.5,423.5C 258.54,411.514 260.54,399.181 260.5,386.5C 259.953,384.288 260.953,382.621 263.5,381.5C 264.721,380.972 265.887,380.305 267,379.5C 267.198,381.382 267.698,383.048 268.5,384.5 Z"/></g>
</svg>
